<?xml version="1.0" encoding="utf-8"?>
<!-- Generator: Adobe Illustrator 16.0.0, SVG Export Plug-In . SVG Version: 6.00 Build 0)  -->
<!DOCTYPE svg PUBLIC "-//W3C//DTD SVG 1.1//EN" "http://www.w3.org/Graphics/SVG/1.1/DTD/svg11.dtd">
<svg version="1.1" id="arza-logo" xmlns="http://www.w3.org/2000/svg" xmlns:xlink="http://www.w3.org/1999/xlink" x="0px" y="0px"
	 width="121.494px" height="116.994px" viewBox="0 0 121.494 116.994" enable-background="new 0 0 121.494 116.994"
	 xml:space="preserve">
<symbol  id="New_Symbol" viewBox="-139.246 -139.246 278.494 278.492">
	<path fill="#FFFFFF" d="M84.458,80.711H66.525C65.3,80.023,43.257,73.34-5.116,8.468c-38.149-51.15-84.204-70.029-84.657-70.21
		l-7.738-17.581c0.157,0.038,19.838,9.972,82.653-0.415c5.017-0.831,9.836-0.974,14.389-0.974c16.21,0,29.299,4.105,39.021,12.257
		c14.821,12.44,15.796,29.678,15.831,30.403l-15.747-0.042c0-0.111-0.689-10.408-10.16-18.351
		c-8.959-7.516-22.865-10.132-41.329-7.753c-17.588,2.261-31.421,3.42-42.206,3.92c17.928,11.9,41.325,30.976,62.512,59.378
		C7.677-0.592,7.898-0.306,8.13,0h44.356l-1.821,15.67H20.21c17.952,22.537,32.483,37.46,42.87,46.966
		c-2.925-23.304-1.227-65,19.364-136.763l15.068,4.319C63.483,48.752,84.424,80.64,84.458,80.711z"/>
	<polygon fill="none" stroke="#FFFFFF" stroke-width="15.1219" stroke-miterlimit="10" points="131.687,-131.686 -131.686,-131.686 
		-131.686,131.685 131.687,131.685 	"/>
</symbol>
<g id="New_Symbol_1">
	
		<use xlink:href="#New_Symbol"  width="278.494" height="278.492" id="XMLID_1_" x="-139.246" y="-139.246" transform="matrix(0.1127 0 0 -0.1127 72.6982 43.0894)" overflow="visible"/>
	<g>
		<path fill="#FFFFFF" d="M52.867,64.768h-3.53c-0.239,0.136-4.578,1.45-14.095,14.214c-7.504,10.064-16.566,13.777-16.655,13.814
			l-1.522,3.46c0.03-0.009,3.903-1.965,16.263,0.08c0.986,0.163,1.935,0.191,2.83,0.191c3.189,0,5.764-0.808,7.676-2.411
			c2.918-2.447,3.107-5.84,3.116-5.982l-3.099,0.008c-0.001,0.022-0.135,2.048-1.999,3.611c-1.763,1.478-4.498,1.992-8.132,1.525
			c-3.459-0.445-6.18-0.673-8.303-0.772c3.258-2.162,7.432-5.53,11.334-10.435h9.825l-0.358-3.084h-7.106
			c4.047-5.235,7.293-8.601,9.547-10.663c-0.574,4.585-0.562,11.715,3.489,25.834l3.24-0.049
			C48.692,70.783,52.859,64.782,52.867,64.768z"/>
		<path fill="#FFFFFF" d="M67.955,79.783l1.586-3.36h-3.098c-0.527,0.861-1.664,2.565-3.642,2.771l-1.527,3.263
			c0.63,0,1.456-0.091,2.005-0.207l-5.656,12.029l3.483,0.012l3.52-7.457c4.482-5.337,6.247-6.062,9.081-5.838l1.335-2.937
			C72.892,77.858,70.797,77.926,67.955,79.783z"/>
		<path fill="#FFFFFF" d="M108.776,79.508h-0.005l1.423-3.084c-0.41-0.005-11.12,0.438-17.835,7.841
			c-6.629,7.309-3.906,11.55-3.576,12.008l0.439,0.408c0.234,0.146,0.802,0.422,1.704,0.422c1.532,0,4.036-0.796,7.534-4.369
			l-0.171,0.355c-0.362,0.755-0.28,1.648,0.217,2.323c0.496,0.675,1.325,1.021,2.156,0.899l3.957-0.582l1.473-3.334l-4.355,0.641
			l1.596-3.309l-2.25,0.012c0.207-0.261,0.418-0.527,0.629-0.806l0.067-0.095c1.347-2.063,2.247-4.757,2.215-5.194
			c-2.472,0.589-3.559,1.443-3.559,1.443c-0.271,0.512-0.657,1.173-1.208,2.02c-4.472,5.839-7.116,6.765-8.09,6.881
			c-0.219-1.03-0.18-3.58,3.508-7.654C100.05,80.362,108.69,79.505,108.776,79.508z"/>
		<path fill="#FFFFFF" d="M89.159,79.852c0.423-0.742,0.39-1.656-0.073-2.374c-0.423-0.658-1.15-1.054-1.934-1.054H80.8
			c0,0-0.099,0.001-0.132,0.005c-1.266,0.171-2.664,0.523-4.026,1.925c-0.018,0.02-0.057,0.085-0.057,0.085l-1.996,4.296
			l3.421-0.008l0.994-2.17c0.293-0.641,0.931-1.049,1.634-1.049h5.104c-1.926,2.896-6.69,9.354-13.164,9.514
			c-0.55,0.014-0.87,0.111-1.346,0.81c-0.374,0.489-1.297,2.515-2.229,4.548h3.33c0.095-0.195,0.238-0.49,0.457-0.923
			c0.985,0.207,2.517,0.74,4.253,2.108c1.361,1.07,2.801,1.604,4.213,1.604c1.665,0,3.298-0.741,4.731-2.213
			c0.952-0.95,2.577-4.28,1.198-7.987l-3.021,1.123c0.97,2.608-0.478,4.605-0.52,4.649c-1.476,1.515-2.941,1.604-4.608,0.291
			c-0.815-0.643-1.608-1.139-2.359-1.531C83.291,89.574,87.719,82.382,89.159,79.852z"/>
	</g>
</g>
</svg>
