<?xml version="1.0" encoding="utf-8"?>
<!-- Generator: Adobe Illustrator 16.0.0, SVG Export Plug-In . SVG Version: 6.00 Build 0)  -->
<!DOCTYPE svg PUBLIC "-//W3C//DTD SVG 1.1//EN" "http://www.w3.org/Graphics/SVG/1.1/DTD/svg11.dtd">
<svg version="1.1" id="arza-logo-mobile" xmlns="http://www.w3.org/2000/svg" xmlns:xlink="http://www.w3.org/1999/xlink" x="0px"
	 y="0px" width="1267.083px" height="674.733px" viewBox="0 0 1267.083 674.733" enable-background="new 0 0 1267.083 674.733"
	 xml:space="preserve">
<symbol  id="New_Symbol" viewBox="-139.246 -139.246 278.494 278.492">
	<path fill="#FFFFFF" d="M84.458,80.711H66.525C65.3,80.023,43.257,73.34-5.116,8.468c-38.149-51.15-84.204-70.029-84.657-70.21
		l-7.738-17.581c0.157,0.038,19.838,9.972,82.653-0.415c5.017-0.831,9.836-0.974,14.389-0.974c16.21,0,29.299,4.105,39.021,12.257
		c14.821,12.44,15.796,29.678,15.831,30.403l-15.747-0.042c0-0.111-0.689-10.408-10.16-18.351
		c-8.959-7.516-22.865-10.132-41.329-7.753c-17.588,2.261-31.421,3.42-42.206,3.92c17.928,11.9,41.325,30.976,62.512,59.378
		C7.677-0.592,7.898-0.306,8.13,0h44.356l-1.821,15.67H20.21c17.952,22.537,32.483,37.46,42.87,46.966
		c-2.925-23.304-1.227-65,19.364-136.763l15.068,4.319C63.483,48.752,84.424,80.64,84.458,80.711z"/>
	<polygon fill="none" stroke="#FFFFFF" stroke-width="15.1219" stroke-miterlimit="10" points="131.687,-131.686 -131.686,-131.686 
		-131.686,131.685 131.687,131.685 	"/>
</symbol>
<use xlink:href="#New_Symbol"  width="278.494" height="278.492" x="-139.246" y="-139.246" transform="matrix(0.7416 0 0 -0.7416 592.1294 368.2461)" overflow="visible"/>
</svg>
