<?xml version="1.0" encoding="utf-8"?>
<!-- Generator: Adobe Illustrator 16.0.0, SVG Export Plug-In . SVG Version: 6.00 Build 0)  -->
<!DOCTYPE svg PUBLIC "-//W3C//DTD SVG 1.1//EN" "http://www.w3.org/Graphics/SVG/1.1/DTD/svg11.dtd">
<svg version="1.1" id="arza-logo-mobile" xmlns="http://www.w3.org/2000/svg" xmlns:xlink="http://www.w3.org/1999/xlink" x="0px"
	 y="0px" width="218px" height="218px" viewBox="484.042 259.867 218 218" enable-background="new 484.042 259.867 218 218"
	 xml:space="preserve">
<path fill="#FFFFFF" d="M654.763,308.391h-13.299c-0.909,0.51-17.256,5.466-53.129,53.576
	c-28.291,37.932-62.445,51.933-62.781,52.067l-5.739,13.038c0.117-0.028,14.712-7.396,61.295,0.308
	c3.721,0.616,7.294,0.722,10.671,0.722c12.021,0,21.728-3.044,28.938-9.09c10.992-9.226,11.714-22.009,11.74-22.547l-11.678,0.031
	c0,0.083-0.511,7.719-7.535,13.609c-6.644,5.574-16.957,7.514-30.649,5.75c-13.043-1.678-23.302-2.536-31.3-2.907
	c13.295-8.825,30.646-22.972,46.359-44.034c0.166-0.229,0.33-0.441,0.502-0.668h32.894l-1.351-11.621h-22.585
	c13.313-16.713,24.089-27.78,31.792-34.83c-2.17,17.282-0.91,48.204,14.36,101.423l11.174-3.203
	C639.208,332.091,654.739,308.443,654.763,308.391z"/>
<polygon fill="none" stroke="#FFFFFF" stroke-width="11.2144" stroke-miterlimit="10" points="689.789,465.903 494.472,465.903 
	494.472,270.589 689.789,270.589 "/>
</svg>
