<?xml version="1.0" encoding="utf-8"?>
<!-- Generator: Adobe Illustrator 16.0.0, SVG Export Plug-In . SVG Version: 6.00 Build 0)  -->
<!DOCTYPE svg PUBLIC "-//W3C//DTD SVG 1.1//EN" "http://www.w3.org/Graphics/SVG/1.1/DTD/svg11.dtd">
<svg version="1.1" id="comolohacemos-3" xmlns="http://www.w3.org/2000/svg" xmlns:xlink="http://www.w3.org/1999/xlink" x="0px"
	 y="0px" width="311px" height="236.416px" viewBox="0 0 311 236.416" enable-background="new 0 0 311 236.416"
	 xml:space="preserve">
<symbol  id="New_Symbol" viewBox="-139.246 -139.246 278.494 278.492">
	<path fill="#FFFFFF" d="M84.458,80.711H66.525C65.3,80.023,43.257,73.34-5.116,8.468c-38.149-51.15-84.204-70.029-84.657-70.21
		l-7.738-17.581c0.157,0.038,19.838,9.972,82.653-0.415c5.017-0.831,9.836-0.974,14.389-0.974c16.21,0,29.299,4.105,39.021,12.257
		c14.821,12.44,15.796,29.678,15.831,30.403l-15.747-0.042c0-0.111-0.689-10.408-10.16-18.351
		c-8.959-7.516-22.865-10.132-41.329-7.753c-17.588,2.261-31.421,3.42-42.206,3.92c17.928,11.9,41.325,30.976,62.512,59.378
		C7.677-0.592,7.898-0.306,8.13,0h44.356l-1.821,15.67H20.21c17.952,22.537,32.483,37.46,42.87,46.966
		c-2.925-23.304-1.227-65,19.364-136.763l15.068,4.319C63.483,48.752,84.424,80.64,84.458,80.711z"/>
	<polygon fill="none" stroke="#FFFFFF" stroke-width="15.1219" stroke-miterlimit="10" points="131.687,-131.686 -131.686,-131.686 
		-131.686,131.685 131.687,131.685 	"/>
</symbol>
<g>
	<g enable-background="new    ">
		<path fill="#D7614D" d="M218.675,74.053c1.049,0,2.162-0.01,3.339-0.032c1.175-0.021,2.32-0.041,3.434-0.063
			c1.112-0.021,2.142-0.041,3.087-0.063c0.944-0.021,1.711-0.052,2.299-0.094c0.462,0.715,0.829,1.512,1.103,2.394
			c0.273,0.882,0.367,1.806,0.284,2.772c-1.597,2.016-3.308,4.232-5.135,6.646c-1.827,2.416-3.519,4.693-5.071,6.835
			c7.392,0.378,11.088,3.739,11.088,10.08c0,1.975-0.441,3.812-1.323,5.512c-0.882,1.701-2.164,3.16-3.843,4.379
			c-1.681,1.217-3.76,2.173-6.237,2.866c-2.479,0.693-5.292,1.04-8.441,1.04c-2.311,0-4.284-0.231-5.923-0.693
			c-1.638-0.463-2.897-1.05-3.779-1.764c0.083-0.798,0.314-1.586,0.692-2.362c0.378-0.778,0.882-1.46,1.513-2.048
			c1.049,0.671,2.089,1.124,3.118,1.355c1.028,0.23,2.151,0.346,3.37,0.346c0.924,0,1.9-0.137,2.93-0.41
			c1.029-0.273,1.974-0.693,2.835-1.26c0.86-0.567,1.575-1.313,2.143-2.236c0.566-0.924,0.851-2.016,0.851-3.276
			c0-1.469-0.379-2.656-1.135-3.559c-0.756-0.903-1.911-1.354-3.465-1.354c-0.589,0-1.008,0.011-1.26,0.031
			c-0.252,0.021-0.567,0.095-0.945,0.221c-0.546-0.588-0.956-1.302-1.229-2.142c-0.273-0.84-0.368-1.679-0.283-2.52
			c1.638-1.974,3.139-3.812,4.505-5.513c1.364-1.701,2.635-3.371,3.812-5.008h-4.6c-0.882,0-1.628,0.053-2.236,0.157
			c-0.609,0.105-1.134,0.337-1.575,0.693c-0.44,0.357-0.83,0.85-1.165,1.48c-0.337,0.63-0.693,1.471-1.071,2.52
			c-0.967,0-1.943-0.084-2.93-0.252c-0.987-0.167-1.817-0.504-2.488-1.008c0.167-1.175,0.304-2.309,0.409-3.402
			c0.104-1.092,0.189-2.184,0.252-3.276c0.063-1.092,0.095-2.226,0.095-3.402v-3.843c0.714,0.042,1.585,0.074,2.614,0.094
			c1.029,0.022,2.121,0.042,3.276,0.063c1.154,0.022,2.352,0.042,3.591,0.063C216.416,74.043,217.582,74.053,218.675,74.053z"/>
		<path fill="#D7614D" d="M245.639,93.457c0.923,0,1.773,0.168,2.551,0.504c0.777,0.336,1.428,0.777,1.953,1.323
			c0.524,0.546,0.935,1.176,1.229,1.89c0.294,0.714,0.441,1.449,0.441,2.205c0,1.806-0.558,3.37-1.67,4.693
			c-1.113,1.323-2.74,1.984-4.883,1.984c-2.016,0-3.602-0.567-4.756-1.701c-1.156-1.134-1.732-2.688-1.732-4.662
			c0-1.974,0.65-3.506,1.953-4.599C242.025,94.003,243.663,93.457,245.639,93.457z"/>
	</g>
	<path id="Page-1-Copy-3_1_" fill="none" stroke="#000000" stroke-width="6" d="M107.72,65.963
		c1.33,0.239,25.016,4.365,43.244,0.769c-12.102,7.85-28.368,12.419-31.284,13.198C115.336,74.899,111.269,70.143,107.72,65.963
		L107.72,65.963z M129.795,91.524c33.041-8.524,38.989-22.951,38.989-22.951l-4.295-20.327c-13.548-1.641-41.963-6.557-41.963-6.557
		c26.434-1.311,35.022-10.82,35.022-10.82c-0.33-0.985-5.285-16.067-5.285-16.067C134.091,29.557,97.41,27.918,97.41,27.918
		c2.975,5.244,1.653,17.705,1.653,17.705c8.589,4.591,39.982,12.786,39.982,12.786c-3.513,0.318-37.89-2.734-40.184-2.939
		c-2.911-3.468-4.612-5.519-4.612-5.519c-5.041,10.986-14.019,15.018-14.019,15.018c-16.356,12.786,2.477,26.067,2.477,26.067
		c66.912,24.592,58.487,132.459,58.487,132.459s4.957,9.838,21.81,0c0,0,6.926-57.39,9.614-86.372l0.133-1.003
		c-8.6-6.359-26.625-25.981-43.238-44.895L129.795,91.524z"/>
</g>
</svg>
