<?xml version="1.0" encoding="utf-8"?>
<!-- Generator: Adobe Illustrator 16.0.0, SVG Export Plug-In . SVG Version: 6.00 Build 0)  -->
<!DOCTYPE svg PUBLIC "-//W3C//DTD SVG 1.1//EN" "http://www.w3.org/Graphics/SVG/1.1/DTD/svg11.dtd">
<svg version="1.1" id="comolohacemos-1" xmlns="http://www.w3.org/2000/svg" xmlns:xlink="http://www.w3.org/1999/xlink" x="0px"
	 y="0px" width="311px" height="236.416px" viewBox="0 0 311 236.416" enable-background="new 0 0 311 236.416"
	 xml:space="preserve">
<symbol  id="New_Symbol" viewBox="-139.246 -139.246 278.494 278.492">
	<path fill="#FFFFFF" d="M84.458,80.711H66.525C65.3,80.023,43.257,73.34-5.116,8.468c-38.149-51.15-84.204-70.029-84.657-70.21
		l-7.738-17.581c0.157,0.038,19.838,9.972,82.653-0.415c5.017-0.831,9.836-0.974,14.389-0.974c16.21,0,29.299,4.105,39.021,12.257
		c14.821,12.44,15.796,29.678,15.831,30.403l-15.747-0.042c0-0.111-0.689-10.408-10.16-18.351
		c-8.959-7.516-22.865-10.132-41.329-7.753c-17.588,2.261-31.421,3.42-42.206,3.92c17.928,11.9,41.325,30.976,62.512,59.378
		C7.677-0.592,7.898-0.306,8.13,0h44.356l-1.821,15.67H20.21c17.952,22.537,32.483,37.46,42.87,46.966
		c-2.925-23.304-1.227-65,19.364-136.763l15.068,4.319C63.483,48.752,84.424,80.64,84.458,80.711z"/>
	<polygon fill="none" stroke="#FFFFFF" stroke-width="15.1219" stroke-miterlimit="10" points="131.687,-131.686 -131.686,-131.686 
		-131.686,131.685 131.687,131.685 	"/>
</symbol>
<g>
	<g enable-background="new    ">
		<path fill="#D7614D" d="M237.089,80.004c0,1.555,0.052,2.794,0.157,3.717c0.104,0.924,0.314,1.638,0.63,2.142
			s0.756,0.84,1.323,1.008c0.566,0.168,1.312,0.274,2.236,0.315c0.21,0.756,0.347,1.543,0.409,2.363
			c0.063,0.819,0.095,1.669,0.095,2.551c-0.63-0.042-1.471-0.074-2.52-0.094c-1.051-0.022-2.133-0.042-3.245-0.063
			c-1.113-0.022-2.152-0.032-3.118-0.032h-4.347c-0.967,0-1.985,0.01-3.056,0.032c-1.071,0.021-2.101,0.041-3.087,0.063
			c-0.987,0.021-1.755,0.052-2.3,0.094c0-0.923,0.041-1.827,0.126-2.709c0.084-0.882,0.21-1.616,0.378-2.205
			c0.924-0.126,1.68-0.293,2.268-0.504c0.588-0.209,1.029-0.556,1.323-1.04c0.294-0.482,0.493-1.155,0.599-2.016
			c0.104-0.86,0.157-2.026,0.157-3.496v-8.253c0-1.427-0.063-2.572-0.188-3.433c-0.126-0.86-0.347-1.533-0.662-2.016
			c-0.314-0.482-0.756-0.808-1.322-0.977c-0.567-0.167-1.292-0.273-2.174-0.315c-0.211-0.756-0.347-1.522-0.409-2.3
			c-0.063-0.776-0.095-1.647-0.095-2.614c0.504,0.042,1.26,0.074,2.268,0.094c1.009,0.022,2.058,0.042,3.15,0.063
			c1.092,0.022,2.142,0.032,3.15,0.032h4.787c1.009,0,2.048-0.01,3.119-0.032c1.071-0.021,2.079-0.041,3.023-0.063
			c0.945-0.021,1.67-0.052,2.174-0.094c0,0.924-0.031,1.786-0.095,2.583c-0.063,0.798-0.199,1.575-0.409,2.331
			c-0.882,0.042-1.606,0.147-2.174,0.315c-0.566,0.168-1.008,0.494-1.322,0.977c-0.315,0.483-0.536,1.156-0.662,2.016
			c-0.126,0.861-0.188,2.006-0.188,3.433V80.004z"/>
		<path fill="#D7614D" d="M254.791,79.815c0.923,0,1.773,0.168,2.551,0.504c0.777,0.336,1.428,0.777,1.953,1.323
			c0.524,0.546,0.935,1.176,1.229,1.89c0.294,0.714,0.441,1.449,0.441,2.205c0,1.806-0.558,3.37-1.67,4.693
			c-1.113,1.323-2.74,1.984-4.883,1.984c-2.016,0-3.602-0.567-4.756-1.701c-1.156-1.134-1.732-2.688-1.732-4.662
			c0-1.974,0.65-3.506,1.953-4.599C251.178,80.361,252.815,79.815,254.791,79.815z"/>
	</g>
	<g id="Page-1-Copy" transform="translate(46.000000, 88.000000)">
		<g id="Clip-2_1_">
		</g>
		<defs>
			<filter id="Adobe_OpacityMaskFilter" filterUnits="userSpaceOnUse" x="0.746" y="27.108" width="229.871" height="55.251">
				<feColorMatrix  type="matrix" values="1 0 0 0 0  0 1 0 0 0  0 0 1 0 0  0 0 0 1 0"/>
			</filter>
		</defs>
		<mask maskUnits="userSpaceOnUse" x="0.746" y="27.108" width="229.871" height="55.251" id="mask-10_2_">
			<g filter="url(#Adobe_OpacityMaskFilter)">
				<path id="path-9_2_" fill="#FFFFFF" d="M230.617,54.734V27.107H0.746v27.627v27.625h229.871V54.734L230.617,54.734z"/>
			</g>
		</mask>
		<path id="Fill-1_2_" mask="url(#mask-10_2_)" d="M225.619,60.5c-0.55-0.381-1.147-0.746-1.779-1.104v-14.3
			c0-1.387-1.12-2.514-2.502-2.514c-1.376,0-2.5,1.125-2.5,2.514v12.052c-1.436-0.53-2.998-1.025-4.689-1.485l-0.01-6.535
			c-0.005-1.387-1.121-2.509-2.5-2.509h-0.006c-1.383,0.003-2.501,1.128-2.495,2.515l0.01,5.357
			c-1.132-0.234-2.304-0.451-3.521-0.66V42.627c0-3.654-1.551-6.437-4.03-8.57c11.179,1.654,21.326,4.578,24.019,9.186V60.5H225.619
			z M198.895,71.004l-0.005-3.928c-0.005-1.382-1.12-2.504-2.5-2.504c-1.352-0.08-2.503,1.127-2.501,2.514l0.016,7.004
			c-2.369,0.941-5.249,1.65-8.521,2.152V62.594c0-1.388-1.118-2.512-2.5-2.512s-2.501,1.124-2.501,2.512v14.255
			c-2.675,0.239-5.521,0.374-8.5,0.431l-0.01-5.629c0-1.387-1.119-2.51-2.501-2.51h-0.005c-1.377,0.004-2.495,1.127-2.495,2.514
			l0.01,5.638c-2.773-0.027-5.616-0.115-8.51-0.253l-0.011-5.855c-0.005-1.385-1.121-2.508-2.5-2.508h-0.006
			c-1.382,0.004-2.501,1.131-2.494,2.518l0.009,5.561c-2.827-0.188-5.677-0.416-8.516-0.676l-0.01-6.061
			c-0.005-1.385-1.121-2.51-2.499-2.51h-0.007c-1.381,0.003-2.5,1.131-2.495,2.517l0.01,5.563c-2.889-0.301-5.731-0.629-8.51-0.975
			l-0.016-5.996c0-1.385-1.121-2.508-2.5-2.508h-0.006c-1.376,0.004-2.494,1.127-2.494,2.516l0.015,5.338
			c-2.979-0.401-5.831-0.816-8.53-1.23V58.559c0-1.386-1.119-2.512-2.502-2.512c-1.381,0-2.499,1.123-2.499,2.512v13.379
			c-3.198-0.529-6.067-1.037-8.506-1.502l-0.011-5.923c0-1.386-1.118-2.508-2.5-2.508h-0.005c-1.376,0.001-2.495,1.126-2.49,2.513
			l0.01,6.418c-2.528,0.457-5.386,0.945-8.511,1.441l-0.01-5.467c-0.005-1.386-1.12-2.508-2.5-2.508h-0.005
			c-1.382,0.002-2.496,1.127-2.496,2.516l0.016,6.221c-2.723,0.4-5.563,0.801-8.515,1.184l-0.012-5.253
			c0-1.387-1.118-2.507-2.5-2.507c-1.382,0.002-2.5,1.126-2.495,2.513l0.01,5.858c-2.794,0.329-5.637,0.639-8.51,0.916l-0.01-5.336
			c-0.007-1.385-1.122-2.51-2.502-2.51h-0.005c-1.381,0.002-2.494,1.129-2.494,2.516l0.01,5.781c-2.849,0.24-5.695,0.441-8.521,0.6
			V63.303c0-1.389-1.121-2.514-2.5-2.514c-1.383,0-2.502,1.125-2.502,2.514v13.838c-2.909,0.111-5.746,0.157-8.505,0.144l-0.01-5.89
			c0-1.385-1.119-2.507-2.496-2.507h-0.005c-1.382,0.003-2.5,1.126-2.495,2.513l0.01,5.789c-3.02-0.112-5.866-0.326-8.515-0.646
			l-0.011-6.075c-0.005-1.386-1.121-2.507-2.5-2.507h-0.005c-1.382,0.002-2.495,1.127-2.495,2.516l0.009,5.264
			c-3.446-0.704-6.35-1.676-8.521-2.971l-0.01-6.91c-0.005-1.383-1.121-2.506-2.5-2.506h0.03c-0.574,0-1.078,0.23-1.497,0.559
			V51.881c1.707,1.264,3.951,2.422,6.909,3.369c5.972,1.909,14.413,2.875,25.096,2.875c27.019,0,61.045-6.199,65.44-7.021
			c4.395,0.822,38.416,7.021,65.439,7.021c6.73,0,23.563-0.008,32.001-6.18v14.877C200.633,68.459,200.053,69.793,198.895,71.004
			L198.895,71.004z M37.749,32.132c18.593,0,40.622,2.995,53.658,5.075c-7.521-0.552-17.773-1.146-28.451-1.309
			c-28.603-0.441-46.453,2.381-53.061,8.375c-0.948,0.859-1.651,1.795-2.184,2.785c-1.963-1.873-1.968-3.645-1.968-4.43
			C5.744,35.859,17.107,32.132,37.749,32.132L37.749,32.132z M164.833,53.078c-20.726-0.42-44.523-4.085-55.307-5.931
			C134.294,47.766,156.064,50.188,164.833,53.078L164.833,53.078z M173.29,53.049c-1.956-3.551-9.653-7.111-35.794-9.359
			c-8.551-0.736-17.155-1.155-23.61-1.391c25.386-1.934,69.371-3.254,79.247,5.703c0.659,0.598,1.032,1.15,1.262,1.654
			C189.782,51.609,182.652,52.762,173.29,53.049L173.29,53.049z M71.952,48.586c9.373-0.807,18.664-1.201,24.638-1.393
			c-10.336,1.762-32.047,5.091-51.78,5.795C48.935,51.594,56.838,49.885,71.952,48.586L71.952,48.586z M36.055,53.104
			c-9.349-0.092-16.717-0.968-21.884-2.621c-0.817-0.262-1.533-0.537-2.199-0.816c0.234-0.502,0.607-1.061,1.271-1.664
			c9.819-8.898,53.309-7.652,78.765-5.739C69.227,43.01,40.863,45.491,36.055,53.104L36.055,53.104z M200.633,42.629
			c0,1.643-0.686,3.107-1.995,4.381c-0.535-0.973-1.224-1.894-2.156-2.736c-6.609-5.99-24.442-8.814-53.057-8.375
			c-10.682,0.158-20.926,0.757-28.456,1.309c13.039-2.08,35.066-5.075,53.657-5.075C189.269,32.132,200.633,35.859,200.633,42.629
			L200.633,42.629z M230.377,41.559c-6.485-13.854-47.569-14.257-52.229-14.257c-0.054,0-0.101,0.03-0.156,0.034
			c-3.785-0.227-7.135-0.229-9.368-0.229c-27.022,0-61.04,6.2-65.435,7.021c-4.396-0.821-38.416-7.021-65.44-7.021
			c-9.147,0-37.003,0-37.003,15.521v24.215c0,3.447,1.433,6.389,4.266,8.734c5.438,4.515,16.442,6.781,32.849,6.781
			c6.96,0,14.901-0.408,23.789-1.227c19.973-1.838,38.385-5.203,41.54-5.797c3.146,0.591,21.559,3.959,41.535,5.797
			c29.838,2.74,48.898,0.876,56.641-5.555c2.832-2.346,4.265-5.289,4.265-8.734v-7.923c15.121,2.708,19.177,6.745,20.229,8.991
			c0.413,0.896,1.308,1.441,2.26,1.441c0.179,0,0.365-0.02,0.544-0.058c1.142-0.26,1.954-1.276,1.954-2.452V42.629
			C230.617,42.26,230.533,41.895,230.377,41.559L230.377,41.559z"/>
	</g>
</g>
<rect x="38.667" opacity="0" fill="#FFFFFF" width="247.333" height="236.667"/>
</svg>
