<?xml version="1.0" encoding="utf-8"?>
<!-- Generator: Adobe Illustrator 16.0.0, SVG Export Plug-In . SVG Version: 6.00 Build 0)  -->
<!DOCTYPE svg PUBLIC "-//W3C//DTD SVG 1.1//EN" "http://www.w3.org/Graphics/SVG/1.1/DTD/svg11.dtd">
<svg version="1.1" id="comolohacemos-2" xmlns="http://www.w3.org/2000/svg" xmlns:xlink="http://www.w3.org/1999/xlink" x="0px"
	 y="0px" width="311px" height="236.416px" viewBox="0 0 311 236.416" enable-background="new 0 0 311 236.416"
	 xml:space="preserve">
<symbol  id="New_Symbol" viewBox="-139.246 -139.246 278.494 278.492">
	<path fill="#FFFFFF" d="M84.458,80.711H66.525C65.3,80.023,43.257,73.34-5.116,8.468c-38.149-51.15-84.204-70.029-84.657-70.21
		l-7.738-17.581c0.157,0.038,19.838,9.972,82.653-0.415c5.017-0.831,9.836-0.974,14.389-0.974c16.21,0,29.299,4.105,39.021,12.257
		c14.821,12.44,15.796,29.678,15.831,30.403l-15.747-0.042c0-0.111-0.689-10.408-10.16-18.351
		c-8.959-7.516-22.865-10.132-41.329-7.753c-17.588,2.261-31.421,3.42-42.206,3.92c17.928,11.9,41.325,30.976,62.512,59.378
		C7.677-0.592,7.898-0.306,8.13,0h44.356l-1.821,15.67H20.21c17.952,22.537,32.483,37.46,42.87,46.966
		c-2.925-23.304-1.227-65,19.364-136.763l15.068,4.319C63.483,48.752,84.424,80.64,84.458,80.711z"/>
	<polygon fill="none" stroke="#FFFFFF" stroke-width="15.1219" stroke-miterlimit="10" points="131.687,-131.686 -131.686,-131.686 
		-131.686,131.685 131.687,131.685 	"/>
</symbol>
<g>
	<g enable-background="new    ">
		<path fill="#D7614D" d="M229.391,59.479c4.242,0,7.309,0.672,9.198,2.016c1.89,1.344,2.835,3.15,2.835,5.418
			c0,1.05-0.168,2.006-0.504,2.866c-0.337,0.861-0.872,1.712-1.606,2.552c-0.735,0.84-1.691,1.701-2.866,2.583
			c-1.177,0.882-2.626,1.869-4.348,2.961c-1.428,0.882-2.709,1.701-3.843,2.457l-1.386,0.945h3.591c1.176,0,2.11-0.031,2.804-0.094
			c0.692-0.063,1.229-0.21,1.606-0.441c0.378-0.23,0.65-0.556,0.818-0.976c0.168-0.419,0.315-0.986,0.441-1.701
			c0.966,0,1.974,0.042,3.024,0.126c1.049,0.084,1.868,0.231,2.457,0.441c0,1.933,0.052,3.812,0.157,5.639
			c0.104,1.827,0.283,3.329,0.535,4.504c-0.294,0.882-0.777,1.554-1.449,2.016c-0.672,0.462-1.491,0.693-2.456,0.693
			c-0.631,0-1.397-0.011-2.3-0.031c-0.904-0.022-1.869-0.042-2.898-0.063c-1.029-0.022-2.11-0.032-3.244-0.032h-3.339
			c-2.227,0-4.315,0.01-6.269,0.032c-1.953,0.021-3.539,0.052-4.757,0.094c-1.05-1.596-1.575-3.675-1.575-6.237
			c1.135-1.134,2.373-2.268,3.718-3.402c1.343-1.134,3.002-2.52,4.977-4.158c1.386-1.175,2.509-2.184,3.37-3.024
			c0.86-0.84,1.533-1.617,2.017-2.331c0.482-0.714,0.808-1.386,0.977-2.016c0.167-0.63,0.252-1.301,0.252-2.016
			c0-1.134-0.315-2.068-0.945-2.803c-0.63-0.734-1.597-1.103-2.897-1.103c-0.631,0-1.177,0.126-1.639,0.378
			c-0.463,0.252-0.861,0.672-1.196,1.26c-0.337,0.589-0.621,1.366-0.851,2.331c-0.231,0.967-0.41,2.185-0.536,3.654
			c-1.386,0-2.541-0.084-3.465-0.252c-0.924-0.167-1.827-0.399-2.709-0.693c0.041-0.545,0.084-1.197,0.126-1.953
			c0.041-0.756,0.063-1.522,0.063-2.3c0-0.776-0.032-1.543-0.095-2.299c-0.063-0.756-0.157-1.427-0.283-2.016
			c1.848-0.966,3.874-1.711,6.079-2.236C223.186,59.742,225.989,59.479,229.391,59.479z"/>
		<path fill="#D7614D" d="M254.528,79.261c0.923,0,1.773,0.168,2.551,0.504c0.777,0.336,1.428,0.777,1.953,1.323
			c0.524,0.546,0.935,1.176,1.229,1.89c0.294,0.714,0.441,1.449,0.441,2.205c0,1.806-0.558,3.37-1.67,4.693
			c-1.113,1.323-2.74,1.984-4.883,1.984c-2.016,0-3.602-0.567-4.756-1.701c-1.156-1.134-1.732-2.688-1.732-4.662
			c0-1.974,0.65-3.506,1.953-4.599C250.915,79.808,252.553,79.261,254.528,79.261z"/>
	</g>
	<g id="Page-1-Copy-2_1_" transform="translate(80.000000, 65.000000)">
		<g id="Group-3_4_" transform="translate(0.000000, 0.056586)">
			<path id="Fill-1_7_" d="M106.494,113.568c-21.515,0.979-42.875-5.766-55.979-11.016l142.563,0.205l-0.32,6.814L106.494,113.568z
				 M-23.42,114.932l-0.615-12.48l55.842,0.078l-2.529,13.828L-23.42,114.932z M-23.629,71.631
				c6.375,1.424,21.961,6.713,21.868,23.783l-22.376-0.033L-23.629,71.631z M-20.299,52.022c9.223,4.883,20.291,7.355,32.955,7.355
				c12.267,0,21.922-2.359,23.996-2.905c9.777-0.746,27.893-15.341,35.114-21.48L88.705,49.41c-1.254-0.235-2.59,0.166-3.445,1.226
				l-6.098,7.628c-1.218,1.529-0.962,3.75,0.57,4.96c0.654,0.516,1.431,0.766,2.205,0.766c1.046,0,2.08-0.455,2.782-1.33l6.101-7.63
				c0.8-1.002,0.905-2.283,0.494-3.399l17.843,15.19c0.082,0.07,0.188,0.098,0.271,0.158l-1.923,2.066
				c-8.438-0.742-42.002-1.813-53.953,26.451L5.357,95.422C5.495,74.9-12.212,66.402-23.477,64.43l0.195-9.121L-20.299,52.022z
				 M189.848,86.982c2.722,3.447,3.492,6.604,3.645,8.717L61.449,95.508c12.643-24.021,45.467-19.484,46.912-19.27
				c1.153,0.17,2.339-0.232,3.139-1.094l6.88-7.391C165.295,68.656,183.197,78.58,189.848,86.982L189.848,86.982z M195.673,82.938
				c-10.874-14.162-37.286-21.629-78.458-22.266c-0.23-0.021-0.454-0.035-0.685-0.01c-1.253-0.018-2.472-0.049-3.752-0.053
				L74.06,27.648c-1.345-1.144-3.333-1.129-4.657,0.035c-9.457,8.304-26.896,21.551-33.434,21.756
				c-0.289,0.007-0.577,0.053-0.854,0.134c-0.101,0.029-9.916,2.745-22.456,2.745c-12.546,0-23.26-2.622-31.848-7.79
				c-1.456-0.875-3.337-0.604-4.476,0.661l-5.773,6.379c-0.57,0.628-0.891,1.441-0.912,2.285l-0.966,44.986
				c0,0.043,0.021,0.082,0.021,0.125c0,0.041-0.021,0.076-0.018,0.123l0.962,19.461c0.093,1.842,1.594,3.309,3.451,3.357l59.028,1.6
				h0.099c1.707,0,3.185-1.219,3.488-2.898l2.837-15.521c10.587,5.035,38.864,16.887,68.266,15.539l89.506-4.152
				c1.833-0.086,3.294-1.543,3.38-3.361l0.632-13.469C200.714,97.684,201.544,90.582,195.673,82.938L195.673,82.938z"/>
		</g>
		<path id="Fill-4_3_" d="M70.265,56.944c0.958,0,1.914-0.381,2.613-1.14l6.101-6.592c1.326-1.437,1.231-3.667-0.216-4.987
			c-1.44-1.321-3.688-1.229-5.015,0.207l-6.1,6.592c-1.327,1.438-1.236,3.669,0.209,4.988
			C68.543,56.637,69.406,56.944,70.265,56.944"/>
	</g>
</g>
</svg>
