<?xml version="1.0" encoding="utf-8"?>
<!-- Generator: Adobe Illustrator 16.0.0, SVG Export Plug-In . SVG Version: 6.00 Build 0)  -->
<!DOCTYPE svg PUBLIC "-//W3C//DTD SVG 1.1//EN" "http://www.w3.org/Graphics/SVG/1.1/DTD/svg11.dtd">
<svg version="1.1" id="texto-header" xmlns="http://www.w3.org/2000/svg" xmlns:xlink="http://www.w3.org/1999/xlink" x="0px"
	 y="0px" width="328.32px" height="236.416px" viewBox="0 0 328.32 236.416" enable-background="new 0 0 328.32 236.416"
	 xml:space="preserve">
<symbol  id="New_Symbol" viewBox="-139.246 -139.246 278.494 278.492">
	<path fill="#FFFFFF" d="M84.458,80.711H66.525C65.3,80.023,43.257,73.34-5.116,8.468c-38.149-51.15-84.204-70.029-84.657-70.21
		l-7.738-17.581c0.157,0.038,19.838,9.972,82.653-0.415c5.017-0.831,9.836-0.974,14.389-0.974c16.21,0,29.299,4.105,39.021,12.257
		c14.821,12.44,15.796,29.678,15.831,30.403l-15.747-0.042c0-0.111-0.689-10.408-10.16-18.351
		c-8.959-7.516-22.865-10.132-41.329-7.753c-17.588,2.261-31.421,3.42-42.206,3.92c17.928,11.9,41.325,30.976,62.512,59.378
		C7.677-0.592,7.898-0.306,8.13,0h44.356l-1.821,15.67H20.21c17.952,22.537,32.483,37.46,42.87,46.966
		c-2.925-23.304-1.227-65,19.364-136.763l15.068,4.319C63.483,48.752,84.424,80.64,84.458,80.711z"/>
	<polygon fill="none" stroke="#FFFFFF" stroke-width="15.1219" stroke-miterlimit="10" points="131.687,-131.686 -131.686,-131.686 
		-131.686,131.685 131.687,131.685 	"/>
</symbol>
<g>
	<path fill="#FFFFFF" d="M38.092,56.022c0.1,0.682,0.238,1.439,0.416,2.276c0.178,0.834,0.384,1.682,0.621,2.547
		c0.236,0.863,0.476,1.689,0.72,2.478c0.244,0.789,0.503,1.493,0.777,2.111c-0.675,0.395-1.412,0.739-2.211,1.04
		c-0.799,0.301-1.826,0.542-3.082,0.726c-0.321-0.941-0.685-1.786-1.086-2.533c-0.404-0.748-0.923-1.35-1.557-1.805
		c-0.637-0.457-1.416-0.773-2.338-0.95c-0.924-0.174-2.049-0.167-3.376,0.028l-2.637,0.387l1.792,12.215
		c0.895-0.13,1.612-0.31,2.147-0.534c0.535-0.224,0.943-0.505,1.224-0.84c0.281-0.333,0.458-0.752,0.529-1.259
		c0.073-0.505,0.057-1.116-0.048-1.833c0.572-0.341,1.283-0.618,2.13-0.837c0.849-0.214,1.686-0.385,2.511-0.504
		c0.053,0.87,0.136,1.803,0.244,2.794c0.109,0.992,0.265,2.169,0.464,3.534c0.22,1.506,0.421,2.751,0.602,3.732
		c0.18,0.981,0.364,1.861,0.552,2.641c-1.004,0.146-1.881,0.238-2.626,0.274c-0.746,0.038-1.44-0.008-2.081-0.135
		c-0.361-1.449-0.889-2.369-1.588-2.762c-0.698-0.392-1.855-0.47-3.47-0.233l0.845,5.758c0.185,1.257,0.398,2.277,0.642,3.066
		c0.244,0.789,0.562,1.394,0.954,1.813c0.391,0.419,0.87,0.687,1.438,0.804c0.567,0.121,1.262,0.118,2.087-0.003l0.916-0.133
		c1.829-0.271,3.189-1.055,4.079-2.359c0.891-1.302,1.504-3.298,1.844-5.986c1.2-0.067,2.326-0.002,3.38,0.19
		c1.054,0.195,1.846,0.472,2.377,0.833c-0.212,1.314-0.334,2.845-0.372,4.589c-0.039,1.748,0.002,3.511,0.115,5.288
		c-0.788,0.117-1.759,0.248-2.908,0.4c-1.152,0.15-2.366,0.31-3.641,0.478c-1.276,0.168-2.579,0.352-3.906,0.545l-3.605,0.529
		c-0.933,0.137-2.204,0.333-3.817,0.588c-1.613,0.255-3.27,0.515-4.97,0.783c-1.702,0.267-3.278,0.517-4.728,0.749
		c-1.451,0.231-2.481,0.392-3.09,0.479c-0.116-0.788-0.194-1.565-0.231-2.329c-0.04-0.764-0.024-1.406,0.046-1.931
		c0.711-0.142,1.287-0.335,1.729-0.583c0.439-0.248,0.762-0.607,0.968-1.079c0.207-0.469,0.299-1.087,0.278-1.854
		c-0.021-0.768-0.123-1.778-0.308-3.033l-2.399-16.36c-0.178-1.219-0.366-2.181-0.559-2.887c-0.197-0.703-0.458-1.242-0.789-1.617
		c-0.328-0.371-0.74-0.613-1.232-0.725c-0.493-0.111-1.124-0.165-1.893-0.162c-0.222-0.518-0.42-1.184-0.595-2.002
		c-0.176-0.817-0.307-1.53-0.396-2.14c0.794-0.08,1.793-0.199,2.998-0.359c1.204-0.157,2.472-0.326,3.802-0.502
		c1.329-0.174,2.64-0.359,3.932-0.548l8.772-1.287c1.541-0.227,2.896-0.434,4.058-0.623c1.164-0.188,2.193-0.357,3.087-0.508
		C36.522,56.317,37.344,56.169,38.092,56.022z"/>
	<path fill="#FFFFFF" d="M54.464,61.244c-0.183-1.039-0.569-1.763-1.159-2.174c-0.591-0.411-1.653-0.625-3.187-0.647
		c-0.073-0.685-0.103-1.393-0.088-2.124c0.013-0.73,0.134-1.4,0.361-2.008c1.334-0.142,2.607-0.33,3.823-0.569
		c1.213-0.238,2.318-0.491,3.31-0.762c0.991-0.27,1.865-0.553,2.618-0.852c0.751-0.298,1.333-0.579,1.742-0.842
		c0.644,0.225,1.157,0.588,1.539,1.096c0.381,0.506,0.622,1.228,0.721,2.165l2.818,26.558c0.096,0.901,0.229,1.643,0.401,2.227
		c0.17,0.584,0.409,1.034,0.716,1.347c0.307,0.315,0.692,0.528,1.162,0.644c0.468,0.113,1.063,0.15,1.79,0.111
		c0.234,0.485,0.415,1.075,0.543,1.773c0.128,0.697,0.241,1.498,0.337,2.397c-0.329-0.001-0.818,0.022-1.47,0.073
		c-0.65,0.052-1.392,0.112-2.223,0.181c-0.832,0.071-1.715,0.156-2.652,0.255l-5.626,0.598c-0.938,0.099-1.82,0.199-2.647,0.307
		c-0.828,0.105-1.565,0.203-2.212,0.29c-0.648,0.086-1.132,0.165-1.452,0.235c-0.096-0.9-0.146-1.708-0.148-2.417
		c-0.002-0.712,0.059-1.329,0.187-1.854c0.718-0.111,1.292-0.274,1.727-0.483c0.433-0.21,0.767-0.5,1.001-0.872
		c0.235-0.371,0.364-0.859,0.392-1.463c0.027-0.604-0.007-1.358-0.103-2.261L54.464,61.244z"/>
	<path fill="#FFFFFF" d="M96.307,50.475c0.689,0.003,1.569-0.012,2.638-0.046c1.069-0.034,2.203-0.08,3.397-0.138l12.821-0.624
		c1.087-0.051,2.136-0.111,3.149-0.18c1.013-0.067,1.936-0.138,2.767-0.216c0.353,0.527,0.634,1.085,0.845,1.675
		c0.209,0.588,0.37,1.28,0.481,2.072c-1.239,2.892-2.422,5.627-3.549,8.204c-1.127,2.578-2.283,5.121-3.469,7.63
		c-1.186,2.508-2.404,5.045-3.659,7.611c-0.992,2.007-2.052,4.094-3.182,6.253l1.956-0.096c1.194-0.058,2.204-0.206,3.027-0.447
		c0.823-0.237,1.528-0.653,2.118-1.245c0.589-0.591,1.076-1.377,1.464-2.358c0.388-0.979,0.744-2.241,1.069-3.782
		c2.363,0.067,4.344,0.496,5.944,1.291c-0.116,0.623-0.242,1.364-0.383,2.224c-0.14,0.859-0.259,1.754-0.359,2.686
		c-0.1,0.932-0.182,1.859-0.246,2.789c-0.063,0.929-0.078,1.756-0.043,2.479c-1.052,0.015-2.186,0.042-3.399,0.084
		c-1.215,0.04-2.437,0.082-3.668,0.123c-1.233,0.042-2.447,0.092-3.643,0.15l-3.313,0.161c-2.173,0.106-4.292,0.217-6.355,0.335
		c-2.063,0.12-3.927,0.255-5.588,0.408c-0.35-0.454-0.64-1.011-0.872-1.672c-0.231-0.659-0.366-1.37-0.403-2.132
		c1.492-2.94,2.873-5.684,4.147-8.233c1.273-2.549,2.496-5.059,3.664-7.53c1.169-2.47,2.328-4.95,3.478-7.438
		c0.954-2.042,1.919-4.213,2.896-6.511l-2.88,0.139c-0.833,0.041-1.552,0.184-2.158,0.432c-0.604,0.246-1.138,0.673-1.598,1.274
		c-0.46,0.604-0.857,1.431-1.187,2.481s-0.639,2.382-0.922,3.994c-1.159,0.056-2.24,0.054-3.241-0.006
		c-1-0.061-1.853-0.218-2.554-0.475c0.385-1.761,0.638-3.688,0.753-5.782C96.367,53.966,96.386,52.104,96.307,50.475z"/>
	<path fill="#FFFFFF" d="M159.39,75.202c0.015,0.943,0.082,1.713,0.201,2.309c0.118,0.597,0.289,1.056,0.511,1.378
		c0.224,0.323,0.49,0.537,0.8,0.64s0.683,0.151,1.118,0.145c0.013,0.836-0.011,1.624-0.07,2.368
		c-0.062,0.744-0.23,1.482-0.509,2.211c-1.957,0.141-3.748,0.37-5.374,0.686c-1.626,0.316-3,0.72-4.115,1.209
		c-0.729-0.241-1.287-0.567-1.676-0.98c-0.387-0.409-0.585-0.976-0.597-1.702c-0.007-0.436,0.039-0.889,0.141-1.363
		c0.066-0.361,0.133-0.726,0.199-1.092c-0.208,0.586-0.525,1.134-0.951,1.649c-0.499,0.66-0.906,1.139-1.229,1.434
		c-0.825,0.63-1.758,1.135-2.803,1.514c-1.047,0.38-2.24,0.58-3.581,0.601c-5.801,0.095-8.737-2.033-8.808-6.384
		c-0.03-1.849,0.544-3.362,1.722-4.543c1.177-1.179,2.622-2.128,4.333-2.845c1.71-0.715,3.506-1.254,5.386-1.61
		c1.88-0.356,3.507-0.637,4.883-0.841c-0.021-1.231-0.127-2.209-0.321-2.932c-0.194-0.722-0.529-1.333-1.008-1.834
		c-0.333-0.393-0.755-0.675-1.265-0.851c-0.51-0.171-1.02-0.254-1.527-0.247c-1.232,0.021-2.139,0.572-2.719,1.65
		c-0.581,1.078-0.948,2.526-1.101,4.34c-1.269,0.022-2.357,0.005-3.264-0.053c-0.907-0.06-1.799-0.243-2.674-0.556
		c0.055-1.052,0.065-2.14,0.028-3.265c-0.036-1.124-0.211-2.372-0.522-3.746c1.513-0.604,3.254-1.103,5.225-1.499
		c1.971-0.394,4.116-0.61,6.436-0.648c2.9-0.047,5.143,0.136,6.727,0.544s2.819,1.078,3.706,2.007
		c0.332,0.358,0.655,0.769,0.972,1.235c0.314,0.466,0.595,1.033,0.841,1.7c0.248,0.667,0.442,1.471,0.583,2.411
		c0.142,0.941,0.225,2.063,0.246,3.368L159.39,75.202z M149.026,73.466c-2.385,0.511-4.043,1.126-4.975,1.849
		c-0.93,0.722-1.388,1.609-1.371,2.661c0.015,0.871,0.223,1.465,0.627,1.785c0.403,0.32,0.896,0.476,1.477,0.467
		c0.507-0.009,1.012-0.144,1.516-0.406c0.502-0.262,0.96-0.642,1.369-1.138c0.409-0.496,0.744-1.1,1.003-1.811
		c0.261-0.712,0.384-1.539,0.368-2.481L149.026,73.466z"/>
	<path fill="#FFFFFF" d="M187.279,86.99c-0.649-0.028-1.284-0.091-1.897-0.188c-0.504-0.096-1.023-0.207-1.563-0.338l-0.127,2.988
		c-0.052,2.101,0.339,3.607,1.171,4.514c0.834,0.906,2.335,1.476,4.502,1.714c0.19,0.624,0.298,1.319,0.32,2.083
		c0.022,0.762,0.02,1.486-0.011,2.177c-0.506-0.059-1.138-0.113-1.897-0.163s-1.585-0.102-2.47-0.159
		c-0.888-0.055-1.803-0.101-2.744-0.142l-5.706-0.24c-1.014-0.042-2.011-0.075-2.989-0.1c-0.98-0.023-1.896-0.044-2.746-0.062
		c-0.854-0.016-1.589-0.021-2.204-0.011c0.04-0.979,0.102-1.801,0.184-2.469c0.083-0.668,0.207-1.252,0.374-1.753
		c0.727-0.007,1.328-0.09,1.808-0.25c0.478-0.163,0.862-0.454,1.151-0.878c0.29-0.422,0.506-1.012,0.646-1.768
		c0.142-0.756,0.239-1.77,0.291-3.037l0.745-17.661c0.037-0.869,0.031-1.604-0.015-2.206c-0.05-0.6-0.191-1.087-0.432-1.46
		c-0.238-0.372-0.615-0.66-1.132-0.864c-0.518-0.203-1.21-0.358-2.077-0.469c0.029-0.688,0.104-1.392,0.226-2.114
		c0.121-0.72,0.337-1.363,0.652-1.931c2.717,0.114,5.125,0.025,7.225-0.267c2.1-0.294,3.593-0.64,4.481-1.037
		c0.602,0.316,1.046,0.752,1.332,1.31c0.285,0.556,0.408,1.305,0.368,2.247c0.493-0.524,0.984-0.956,1.471-1.3
		c0.708-0.478,1.681-0.916,2.912-1.319c1.233-0.402,2.612-0.569,4.132-0.507c1.559,0.065,3.007,0.335,4.35,0.81
		c1.34,0.474,2.49,1.176,3.449,2.104c0.958,0.931,1.698,2.106,2.221,3.525c0.52,1.418,0.74,3.087,0.659,5.008
		c-0.095,2.246-0.561,4.27-1.398,6.066c-0.839,1.797-1.99,3.319-3.459,4.563c-1.468,1.244-3.205,2.179-5.207,2.802
		C191.868,86.83,189.672,87.091,187.279,86.99z M184.92,70.668c-0.336,1.039-0.533,2.318-0.598,3.84l-0.279,6.63
		c0.376,0.523,0.774,0.958,1.197,1.302c0.599,0.424,1.313,0.655,2.149,0.689c0.614,0.026,1.263-0.063,1.942-0.272
		c0.68-0.205,1.314-0.642,1.906-1.308c0.592-0.663,1.093-1.604,1.507-2.82c0.414-1.218,0.664-2.822,0.748-4.814
		c0.037-0.868,0.01-1.742-0.081-2.615c-0.091-0.876-0.274-1.655-0.555-2.337c-0.279-0.686-0.683-1.254-1.207-1.712
		c-0.524-0.458-1.224-0.706-2.092-0.742c-0.617-0.025-1.221,0.094-1.812,0.359c-0.591,0.266-1.128,0.706-1.607,1.319
		C185.659,68.804,185.252,69.63,184.92,70.668z"/>
	<path fill="#FFFFFF" d="M238.951,79.852c-0.084,0.939-0.099,1.711-0.042,2.317c0.055,0.604,0.176,1.081,0.363,1.426
		c0.188,0.344,0.43,0.583,0.727,0.721c0.297,0.135,0.662,0.222,1.097,0.261c-0.074,0.832-0.182,1.613-0.319,2.348
		c-0.14,0.734-0.386,1.45-0.738,2.145c-1.96-0.065-3.765-0.027-5.416,0.118c-1.651,0.143-3.059,0.398-4.221,0.767
		c-0.699-0.317-1.22-0.7-1.561-1.151c-0.343-0.447-0.482-1.033-0.417-1.756c0.039-0.435,0.133-0.88,0.284-1.341
		c0.104-0.354,0.208-0.709,0.313-1.063c-0.269,0.559-0.642,1.071-1.12,1.538c-0.563,0.604-1.022,1.037-1.372,1.296
		c-0.887,0.54-1.87,0.944-2.948,1.21c-1.081,0.267-2.289,0.342-3.624,0.222c-5.779-0.517-8.475-2.942-8.087-7.275
		c0.166-1.843,0.896-3.288,2.19-4.337c1.296-1.049,2.832-1.84,4.608-2.372c1.777-0.534,3.619-0.878,5.525-1.035
		c1.907-0.157,3.556-0.264,4.944-0.322c0.11-1.228,0.106-2.21-0.009-2.949c-0.117-0.739-0.387-1.381-0.812-1.929
		c-0.288-0.427-0.679-0.753-1.166-0.979c-0.491-0.226-0.989-0.361-1.494-0.406c-1.228-0.11-2.187,0.342-2.878,1.354
		c-0.69,1.013-1.208,2.412-1.551,4.202c-1.265-0.114-2.345-0.246-3.24-0.399c-0.897-0.152-1.764-0.43-2.602-0.833
		c0.166-1.042,0.289-2.122,0.373-3.244c0.08-1.12,0.04-2.38-0.126-3.779c1.566-0.441,3.353-0.754,5.353-0.939
		c2.001-0.184,4.156-0.175,6.468,0.032c2.89,0.259,5.102,0.676,6.633,1.25c1.532,0.574,2.689,1.369,3.473,2.385
		c0.293,0.392,0.571,0.835,0.837,1.33c0.263,0.499,0.484,1.091,0.659,1.781c0.174,0.688,0.283,1.508,0.326,2.459
		c0.041,0.95,0.006,2.075-0.11,3.376L238.951,79.852z M228.829,77.035c-2.426,0.256-4.142,0.694-5.143,1.314
		c-1.003,0.62-1.55,1.455-1.643,2.5c-0.078,0.867,0.066,1.481,0.435,1.841c0.369,0.362,0.842,0.567,1.42,0.619
		c0.506,0.044,1.021-0.036,1.55-0.244s1.021-0.536,1.482-0.986c0.458-0.451,0.854-1.015,1.188-1.695
		c0.334-0.68,0.544-1.489,0.626-2.429L228.829,77.035z"/>
	<path fill="#FFFFFF" d="M253.541,67.432l0.792-6.205c1.641,0.027,3.281-0.147,4.919-0.522s2.969-0.864,3.998-1.464
		c0.61,0.371,1.01,0.823,1.197,1.359c0.186,0.536,0.202,1.415,0.047,2.637l-0.702,5.504l6.313,0.806
		c-0.12,0.937-0.268,1.729-0.441,2.383c-0.177,0.655-0.392,1.276-0.649,1.865c-2.194-0.281-4.161-0.203-5.897,0.233l-1.129,8.848
		c-0.161,1.26-0.245,2.272-0.252,3.039s0.063,1.371,0.209,1.808c0.145,0.439,0.369,0.753,0.675,0.938
		c0.305,0.186,0.692,0.307,1.159,0.367c0.433,0.055,0.942,0.064,1.531,0.032c0.589-0.036,1.13-0.112,1.621-0.232
		c0.204,0.392,0.34,0.903,0.407,1.533c0.064,0.629,0.052,1.304-0.039,2.023c-0.86,0.438-2.04,0.735-3.541,0.892
		c-1.501,0.154-3.061,0.131-4.68-0.077c-2.877-0.367-4.95-1.381-6.219-3.042c-1.268-1.66-1.671-4.307-1.206-7.939l1.261-9.874
		c-0.544-0.325-1.134-0.573-1.77-0.747c-0.636-0.171-1.368-0.313-2.194-0.417c0.105-0.827,0.255-1.566,0.447-2.218
		c0.193-0.651,0.477-1.301,0.852-1.947L253.541,67.432z"/>
	<path fill="#FFFFFF" d="M276.313,82.9c0.378-2.251,1.091-4.145,2.139-5.678c1.047-1.534,2.333-2.733,3.856-3.599
		c1.525-0.866,3.234-1.417,5.131-1.649c1.895-0.233,3.881-0.175,5.955,0.173c2.467,0.414,4.563,1.078,6.284,1.992
		c1.721,0.915,3.087,2.026,4.101,3.336c1.011,1.309,1.686,2.766,2.024,4.366c0.337,1.601,0.356,3.295,0.058,5.082
		c-0.709,4.222-2.588,7.251-5.636,9.093c-3.049,1.841-6.915,2.368-11.599,1.582c-4.828-0.811-8.247-2.515-10.255-5.112
		C276.361,89.887,275.675,86.693,276.313,82.9z M286.846,82.574c-0.234,1.395-0.348,2.729-0.34,3.997
		c0.007,1.271,0.147,2.404,0.421,3.407c0.273,1.002,0.695,1.826,1.268,2.475c0.571,0.647,1.285,1.043,2.145,1.187
		c1.215,0.204,2.272-0.344,3.172-1.646c0.898-1.301,1.519-2.971,1.862-5.009c0.293-1.753,0.403-3.297,0.335-4.632
		c-0.071-1.335-0.275-2.463-0.618-3.386c-0.342-0.92-0.791-1.639-1.348-2.155c-0.558-0.517-1.156-0.829-1.801-0.938
		c-0.643-0.108-1.239-0.005-1.789,0.306c-0.548,0.313-1.039,0.772-1.472,1.38c-0.433,0.607-0.805,1.346-1.115,2.212
		C287.253,80.64,287.014,81.574,286.846,82.574z"/>
</g>
<g>
	<g>
		<path fill="#FFFFFF" d="M21.984,26.273l1.636,10.396l-0.747,0.118l-0.784-4.978l-6.56,1.032l0.784,4.979l-0.746,0.118
			l-1.637-10.396l0.748-0.117l0.745,4.743l6.56-1.033l-0.746-4.742L21.984,26.273z"/>
		<path fill="#FFFFFF" d="M29.968,35.887c-0.538,0.078-1.052,0.044-1.542-0.099c-0.491-0.144-0.93-0.374-1.321-0.693
			c-0.391-0.316-0.716-0.701-0.976-1.153c-0.259-0.452-0.431-0.951-0.509-1.499c-0.078-0.538-0.056-1.057,0.066-1.559
			c0.122-0.503,0.323-0.956,0.603-1.361c0.282-0.405,0.635-0.744,1.06-1.014c0.424-0.271,0.902-0.446,1.431-0.521
			c0.538-0.078,1.051-0.046,1.541,0.099c0.49,0.143,0.926,0.369,1.312,0.678c0.385,0.309,0.703,0.688,0.958,1.134
			c0.253,0.449,0.42,0.937,0.496,1.465c0.008,0.048,0.016,0.108,0.026,0.183c0.011,0.072,0.013,0.121,0.006,0.142l-6.689,0.968
			c0.093,0.436,0.256,0.831,0.485,1.18c0.231,0.353,0.5,0.645,0.809,0.88c0.308,0.235,0.65,0.405,1.024,0.511
			c0.377,0.105,0.763,0.129,1.165,0.071c0.264-0.038,0.518-0.112,0.761-0.223c0.243-0.11,0.467-0.244,0.668-0.402
			c0.203-0.16,0.375-0.342,0.52-0.548c0.145-0.205,0.251-0.423,0.317-0.652l0.671,0.083c-0.067,0.289-0.191,0.565-0.367,0.825
			c-0.177,0.259-0.394,0.493-0.646,0.7c-0.256,0.208-0.543,0.381-0.861,0.521C30.656,35.739,30.319,35.836,29.968,35.887z
			 M32.344,31.199c-0.095-0.445-0.256-0.84-0.48-1.188c-0.225-0.348-0.491-0.636-0.799-0.866c-0.309-0.229-0.649-0.395-1.022-0.496
			c-0.374-0.1-0.762-0.121-1.163-0.064c-0.4,0.059-0.767,0.188-1.096,0.392c-0.33,0.202-0.61,0.458-0.84,0.765
			c-0.229,0.308-0.398,0.662-0.505,1.063c-0.107,0.399-0.143,0.82-0.108,1.266L32.344,31.199z"/>
		<path fill="#FFFFFF" d="M34.945,31.105c-0.071-0.539-0.045-1.061,0.075-1.564c0.123-0.506,0.326-0.958,0.613-1.354
			c0.285-0.398,0.644-0.73,1.077-0.996c0.433-0.268,0.923-0.439,1.472-0.512c0.696-0.094,1.328-0.019,1.9,0.225
			c0.57,0.242,1.025,0.624,1.365,1.148l-0.69,0.33c-0.281-0.391-0.647-0.677-1.094-0.862c-0.449-0.185-0.923-0.243-1.423-0.176
			c-0.42,0.056-0.8,0.191-1.141,0.406c-0.34,0.215-0.625,0.487-0.856,0.818c-0.229,0.33-0.396,0.704-0.5,1.122
			c-0.104,0.417-0.125,0.856-0.063,1.317c0.06,0.461,0.2,0.883,0.415,1.267c0.217,0.386,0.48,0.709,0.789,0.972
			c0.309,0.263,0.658,0.457,1.049,0.584s0.792,0.164,1.204,0.108c0.266-0.035,0.521-0.108,0.771-0.222
			c0.249-0.114,0.476-0.249,0.679-0.406c0.203-0.156,0.374-0.331,0.511-0.524c0.14-0.192,0.226-0.387,0.26-0.579l0.748,0.108
			c-0.063,0.277-0.18,0.545-0.349,0.802c-0.171,0.257-0.381,0.487-0.633,0.69c-0.252,0.202-0.54,0.373-0.859,0.51
			c-0.32,0.139-0.657,0.231-1.009,0.278c-0.538,0.071-1.052,0.034-1.542-0.115c-0.488-0.149-0.927-0.386-1.313-0.707
			c-0.387-0.323-0.709-0.71-0.964-1.165C35.184,32.155,35.02,31.653,34.945,31.105z"/>
		<path fill="#FFFFFF" d="M50.927,32.966l-0.735,0.091l-0.525-4.268c-0.232-1.891-0.981-2.761-2.247-2.605
			c-0.313,0.039-0.612,0.136-0.897,0.29c-0.284,0.154-0.542,0.356-0.776,0.604c-0.234,0.248-0.431,0.527-0.591,0.842
			c-0.16,0.313-0.27,0.644-0.326,0.989l0.582,4.736l-0.735,0.091l-1.32-10.74l0.735-0.09l0.604,4.914
			c0.241-0.637,0.616-1.167,1.126-1.587c0.511-0.422,1.085-0.671,1.723-0.75c0.422-0.053,0.793-0.018,1.117,0.102
			c0.323,0.12,0.604,0.313,0.842,0.583c0.236,0.27,0.426,0.607,0.571,1.013c0.145,0.404,0.249,0.867,0.313,1.387L50.927,32.966z"/>
		<path fill="#FFFFFF" d="M57.1,32.409c-0.541,0.06-1.049,0.011-1.529-0.15c-0.48-0.159-0.908-0.403-1.283-0.729
			c-0.374-0.325-0.682-0.718-0.921-1.179c-0.242-0.461-0.391-0.956-0.449-1.487c-0.061-0.539-0.022-1.062,0.116-1.563
			c0.137-0.503,0.352-0.955,0.646-1.355c0.292-0.4,0.656-0.731,1.088-0.994c0.434-0.262,0.915-0.422,1.445-0.481
			c0.531-0.061,1.034-0.008,1.509,0.151c0.475,0.162,0.903,0.405,1.282,0.73c0.379,0.326,0.692,0.718,0.937,1.179
			c0.246,0.458,0.398,0.959,0.458,1.499c0.06,0.529,0.021,1.047-0.117,1.55c-0.138,0.502-0.354,0.953-0.646,1.354
			c-0.294,0.401-0.656,0.733-1.091,0.995C58.113,32.189,57.631,32.351,57.1,32.409z M53.655,28.812
			c0.051,0.453,0.177,0.869,0.379,1.249c0.201,0.38,0.453,0.703,0.757,0.966c0.302,0.265,0.646,0.462,1.027,0.593
			c0.383,0.133,0.781,0.174,1.192,0.128c0.412-0.046,0.791-0.175,1.136-0.388c0.344-0.212,0.637-0.485,0.877-0.821
			c0.241-0.335,0.418-0.71,0.531-1.126c0.112-0.415,0.144-0.853,0.092-1.315c-0.051-0.451-0.177-0.867-0.377-1.247
			c-0.203-0.381-0.458-0.704-0.766-0.973c-0.308-0.27-0.651-0.473-1.029-0.61c-0.378-0.136-0.774-0.18-1.187-0.134
			c-0.412,0.046-0.791,0.178-1.134,0.395c-0.344,0.218-0.634,0.493-0.87,0.828c-0.235,0.336-0.411,0.714-0.528,1.141
			C53.639,27.922,53.606,28.361,53.655,28.812z"/>
		<path fill="#FFFFFF" d="M69.734,31.093c-0.354,0.032-0.69,0.002-1.006-0.09c-0.317-0.095-0.601-0.237-0.853-0.425
			c-0.252-0.191-0.455-0.425-0.61-0.702s-0.25-0.584-0.281-0.919c-0.032-0.333,0.017-0.646,0.149-0.937
			c0.131-0.29,0.327-0.55,0.587-0.779c0.261-0.228,0.583-0.417,0.966-0.569c0.382-0.149,0.81-0.249,1.282-0.293
			c0.413-0.04,0.833-0.042,1.257-0.008c0.426,0.033,0.812,0.099,1.158,0.195l-0.072-0.753c-0.068-0.729-0.33-1.285-0.784-1.675
			c-0.455-0.388-1.035-0.549-1.744-0.482c-0.374,0.037-0.762,0.154-1.165,0.352c-0.403,0.197-0.806,0.463-1.211,0.8l-0.328-0.475
			c0.919-0.763,1.821-1.188,2.707-1.271c0.925-0.087,1.679,0.11,2.261,0.595c0.584,0.487,0.919,1.202,1.01,2.146l0.358,3.748
			c0.023,0.245,0.142,0.357,0.359,0.338l0.063,0.663c-0.048,0.016-0.099,0.027-0.151,0.037c-0.053,0.009-0.101,0.017-0.141,0.021
			c-0.196,0.018-0.359-0.034-0.491-0.154c-0.13-0.122-0.214-0.275-0.252-0.461l-0.061-0.634c-0.311,0.497-0.728,0.896-1.257,1.193
			C70.956,30.85,70.373,31.032,69.734,31.093z M69.824,30.487c0.57-0.054,1.084-0.212,1.541-0.474
			c0.456-0.263,0.796-0.583,1.018-0.961c0.138-0.221,0.198-0.426,0.179-0.613l-0.129-1.357c-0.368-0.103-0.747-0.172-1.137-0.205
			c-0.389-0.032-0.792-0.029-1.205,0.012c-0.384,0.036-0.729,0.11-1.035,0.225c-0.308,0.113-0.567,0.255-0.78,0.424
			c-0.212,0.169-0.369,0.365-0.473,0.589c-0.101,0.225-0.141,0.463-0.116,0.719c0.024,0.256,0.097,0.492,0.216,0.709
			c0.12,0.217,0.276,0.398,0.469,0.542c0.192,0.145,0.413,0.254,0.664,0.323C69.286,30.493,69.548,30.514,69.824,30.487z"/>
		<path fill="#FFFFFF" d="M92.247,29.052l-0.739,0.057l-0.328-4.286c-0.075-0.976-0.28-1.683-0.615-2.123
			c-0.337-0.439-0.815-0.637-1.435-0.589c-0.316,0.024-0.612,0.106-0.888,0.246c-0.278,0.141-0.526,0.326-0.746,0.556
			c-0.221,0.229-0.406,0.497-0.556,0.8c-0.15,0.304-0.262,0.636-0.332,0.999l0.363,4.745l-0.739,0.056l-0.328-4.286
			c-0.075-0.985-0.279-1.694-0.609-2.131c-0.331-0.434-0.807-0.63-1.427-0.582c-0.316,0.025-0.609,0.104-0.88,0.239
			c-0.273,0.135-0.519,0.316-0.739,0.548c-0.221,0.229-0.41,0.498-0.571,0.801c-0.159,0.304-0.275,0.638-0.347,1l0.365,4.759
			l-0.739,0.058l-0.588-7.686l0.694-0.053l0.14,1.833c0.268-0.646,0.645-1.16,1.131-1.544c0.485-0.383,1.039-0.601,1.66-0.648
			c0.65-0.049,1.192,0.104,1.626,0.455c0.432,0.354,0.711,0.837,0.839,1.452c0.623-1.445,1.573-2.217,2.854-2.313
			c0.837-0.064,1.459,0.188,1.865,0.755c0.406,0.569,0.649,1.391,0.731,2.464L92.247,29.052z"/>
		<path fill="#FFFFFF" d="M97.109,28.893c-0.354,0.023-0.688-0.018-1.002-0.122c-0.312-0.104-0.592-0.255-0.838-0.454
			c-0.244-0.196-0.44-0.437-0.586-0.719c-0.147-0.284-0.231-0.593-0.252-0.929c-0.021-0.334,0.039-0.646,0.18-0.932
			c0.14-0.285,0.344-0.539,0.613-0.759c0.268-0.22,0.596-0.398,0.983-0.536c0.387-0.139,0.816-0.224,1.291-0.253
			c0.414-0.027,0.833-0.015,1.257,0.032c0.423,0.047,0.807,0.124,1.152,0.231l-0.048-0.753c-0.046-0.73-0.29-1.298-0.73-1.7
			c-0.442-0.404-1.018-0.582-1.728-0.538c-0.374,0.024-0.767,0.128-1.174,0.312c-0.41,0.185-0.823,0.438-1.238,0.763l-0.313-0.487
			c0.945-0.732,1.859-1.128,2.747-1.183c0.928-0.058,1.674,0.163,2.241,0.668c0.565,0.505,0.878,1.23,0.938,2.176l0.237,3.757
			c0.017,0.247,0.132,0.363,0.349,0.348l0.042,0.666c-0.049,0.014-0.1,0.025-0.154,0.033c-0.054,0.008-0.101,0.013-0.141,0.015
			c-0.197,0.014-0.358-0.043-0.485-0.168c-0.127-0.125-0.206-0.282-0.237-0.468l-0.04-0.637c-0.326,0.487-0.758,0.871-1.294,1.151
			C98.339,28.691,97.751,28.854,97.109,28.893z M97.22,28.291c0.572-0.036,1.091-0.176,1.556-0.425
			c0.463-0.246,0.813-0.554,1.047-0.926c0.144-0.218,0.211-0.42,0.2-0.607l-0.087-1.361c-0.363-0.115-0.739-0.195-1.129-0.24
			c-0.388-0.044-0.79-0.054-1.204-0.028c-0.386,0.025-0.733,0.088-1.042,0.192c-0.311,0.104-0.574,0.236-0.792,0.399
			c-0.218,0.162-0.381,0.352-0.491,0.571c-0.111,0.222-0.157,0.459-0.14,0.714c0.014,0.258,0.08,0.496,0.192,0.717
			c0.114,0.22,0.264,0.406,0.452,0.557c0.188,0.152,0.405,0.268,0.652,0.345C96.683,28.278,96.945,28.309,97.22,28.291z"/>
		<path fill="#FFFFFF" d="M110.136,28.004l-0.741,0.038l-0.225-4.291c-0.053-0.997-0.231-1.716-0.537-2.155
			c-0.305-0.438-0.763-0.642-1.376-0.609c-0.325,0.017-0.644,0.093-0.96,0.229c-0.313,0.136-0.603,0.319-0.868,0.551
			c-0.265,0.231-0.492,0.498-0.685,0.8c-0.192,0.302-0.328,0.623-0.411,0.963l0.251,4.768l-0.74,0.039l-0.403-7.697l0.694-0.037
			l0.097,1.836c0.142-0.304,0.323-0.583,0.542-0.837c0.22-0.254,0.469-0.476,0.751-0.664c0.281-0.188,0.583-0.338,0.903-0.448
			s0.654-0.174,1-0.193c0.838-0.044,1.446,0.22,1.822,0.788c0.376,0.57,0.594,1.401,0.651,2.498L110.136,28.004z"/>
		<path fill="#FFFFFF" d="M116.336,27.878c-0.543,0.022-1.048-0.063-1.516-0.256c-0.468-0.193-0.877-0.464-1.228-0.816
			c-0.351-0.35-0.631-0.765-0.838-1.241c-0.208-0.476-0.322-0.981-0.346-1.514c-0.021-0.543,0.054-1.061,0.226-1.551
			c0.173-0.492,0.418-0.928,0.739-1.307c0.321-0.38,0.706-0.685,1.156-0.917c0.451-0.231,0.943-0.358,1.476-0.38
			c0.533-0.021,1.03,0.063,1.494,0.257c0.463,0.194,0.873,0.466,1.228,0.817c0.356,0.351,0.641,0.765,0.853,1.24
			c0.213,0.476,0.331,0.986,0.354,1.528c0.021,0.534-0.053,1.046-0.227,1.538c-0.171,0.492-0.418,0.927-0.738,1.307
			c-0.321,0.38-0.707,0.684-1.156,0.915C117.361,27.729,116.869,27.855,116.336,27.878z M113.152,24.05
			c0.018,0.454,0.115,0.877,0.289,1.271c0.174,0.394,0.403,0.733,0.688,1.017c0.285,0.285,0.613,0.506,0.984,0.665
			c0.373,0.158,0.766,0.228,1.181,0.21c0.415-0.017,0.801-0.121,1.159-0.308c0.359-0.188,0.668-0.44,0.934-0.758
			c0.263-0.318,0.465-0.681,0.606-1.085c0.141-0.408,0.203-0.843,0.183-1.307c-0.019-0.455-0.116-0.878-0.29-1.271
			c-0.174-0.394-0.406-0.734-0.695-1.024s-0.617-0.517-0.984-0.678c-0.369-0.164-0.76-0.235-1.175-0.22
			c-0.415,0.017-0.8,0.124-1.157,0.316c-0.359,0.192-0.667,0.447-0.927,0.764c-0.258,0.318-0.46,0.687-0.605,1.101
			C113.195,23.16,113.132,23.595,113.152,24.05z"/>
		<path fill="#FFFFFF" d="M130.875,27.397c-0.663,0.016-1.256-0.144-1.785-0.481c-0.526-0.338-0.956-0.755-1.283-1.25l0.12,4.815
			l-0.741,0.017l-0.272-10.86l0.683-0.017l0.038,1.541c0.304-0.501,0.71-0.913,1.221-1.24c0.512-0.323,1.064-0.491,1.656-0.507
			c0.533-0.014,1.03,0.088,1.49,0.303c0.461,0.216,0.859,0.507,1.194,0.868s0.599,0.784,0.793,1.262
			c0.195,0.48,0.299,0.972,0.311,1.476c0.015,0.534-0.058,1.045-0.212,1.533c-0.157,0.486-0.386,0.919-0.688,1.292
			c-0.302,0.374-0.668,0.671-1.098,0.894C131.874,27.266,131.399,27.384,130.875,27.397z M130.68,26.735
			c0.443-0.012,0.847-0.116,1.208-0.311c0.359-0.198,0.666-0.455,0.914-0.771c0.249-0.319,0.438-0.679,0.567-1.082
			c0.128-0.404,0.186-0.813,0.176-1.229c-0.011-0.445-0.102-0.864-0.269-1.26c-0.168-0.396-0.397-0.745-0.686-1.044
			c-0.289-0.3-0.623-0.535-1.003-0.708c-0.379-0.174-0.782-0.256-1.207-0.245c-0.268,0.006-0.55,0.071-0.848,0.192
			c-0.297,0.121-0.578,0.281-0.84,0.481c-0.262,0.199-0.484,0.424-0.665,0.676c-0.183,0.253-0.284,0.516-0.307,0.794l0.064,2.534
			c0.135,0.282,0.304,0.545,0.508,0.789c0.204,0.241,0.432,0.452,0.684,0.634c0.251,0.182,0.521,0.32,0.81,0.418
			C130.077,26.7,130.374,26.742,130.68,26.735z"/>
		<path fill="#FFFFFF" d="M138.79,27.241c-0.354,0.005-0.688-0.05-0.995-0.168c-0.309-0.119-0.581-0.283-0.816-0.493
			c-0.236-0.207-0.42-0.456-0.553-0.745s-0.203-0.603-0.208-0.938c-0.006-0.335,0.068-0.644,0.222-0.922
			c0.153-0.279,0.37-0.522,0.648-0.729c0.279-0.208,0.614-0.371,1.007-0.49c0.393-0.12,0.827-0.185,1.301-0.193
			c0.415-0.006,0.833,0.025,1.253,0.092c0.423,0.068,0.801,0.162,1.139,0.284l-0.012-0.755c-0.012-0.73-0.228-1.309-0.65-1.731
			c-0.422-0.422-0.988-0.629-1.7-0.617c-0.376,0.007-0.772,0.093-1.189,0.257c-0.417,0.164-0.842,0.398-1.271,0.702l-0.29-0.499
			c0.977-0.688,1.911-1.04,2.799-1.054c0.928-0.015,1.664,0.243,2.206,0.771c0.543,0.53,0.822,1.269,0.837,2.218l0.061,3.764
			c0.005,0.246,0.115,0.369,0.333,0.365l0.01,0.668c-0.048,0.01-0.102,0.018-0.155,0.023c-0.055,0.005-0.101,0.01-0.141,0.01
			c-0.198,0.002-0.356-0.061-0.478-0.193c-0.121-0.13-0.191-0.29-0.216-0.478l-0.01-0.636c-0.347,0.47-0.796,0.832-1.346,1.087
			C140.028,27.097,139.434,27.23,138.79,27.241z M138.931,26.646c0.571-0.01,1.096-0.125,1.572-0.351
			c0.476-0.226,0.839-0.518,1.091-0.877c0.154-0.209,0.229-0.41,0.227-0.597l-0.022-1.363c-0.358-0.134-0.731-0.229-1.117-0.292
			c-0.386-0.063-0.787-0.092-1.202-0.085c-0.386,0.004-0.735,0.054-1.051,0.143c-0.313,0.089-0.584,0.209-0.809,0.362
			c-0.225,0.152-0.398,0.335-0.518,0.549c-0.12,0.214-0.177,0.449-0.174,0.707c0.004,0.255,0.058,0.497,0.16,0.724
			c0.103,0.224,0.245,0.417,0.425,0.578c0.18,0.161,0.392,0.287,0.636,0.375C138.392,26.608,138.653,26.651,138.931,26.646z"/>
		<path fill="#FFFFFF" d="M149.12,19.93c-0.69,0.03-1.293,0.246-1.804,0.645c-0.513,0.397-0.866,0.94-1.064,1.625l0.078,4.816
			l-0.741,0.012l-0.124-7.706l0.71-0.012l0.03,1.896c0.258-0.548,0.604-0.994,1.039-1.343c0.434-0.349,0.903-0.552,1.405-0.609
			c0.1-0.011,0.188-0.018,0.268-0.02c0.078,0,0.143-0.001,0.193-0.001L149.12,19.93z"/>
		<path fill="#FFFFFF" d="M153.12,27.127c-0.354-0.006-0.685-0.074-0.989-0.202c-0.304-0.129-0.572-0.302-0.8-0.517
			c-0.228-0.217-0.405-0.471-0.53-0.764c-0.123-0.295-0.182-0.609-0.176-0.946c0.005-0.336,0.089-0.64,0.25-0.915
			c0.163-0.273,0.388-0.509,0.672-0.708c0.285-0.197,0.626-0.351,1.023-0.457c0.397-0.107,0.833-0.157,1.306-0.15
			c0.415,0.007,0.833,0.05,1.251,0.13c0.418,0.082,0.795,0.189,1.129,0.323l0.012-0.755c0.012-0.731-0.187-1.316-0.595-1.751
			c-0.408-0.437-0.968-0.661-1.679-0.673c-0.375-0.006-0.774,0.067-1.196,0.217c-0.422,0.151-0.854,0.373-1.293,0.661l-0.273-0.508
			c0.999-0.655,1.942-0.976,2.832-0.961c0.929,0.014,1.655,0.295,2.179,0.842c0.525,0.547,0.781,1.294,0.764,2.243l-0.061,3.764
			c-0.005,0.248,0.103,0.373,0.321,0.375l-0.013,0.668c-0.049,0.008-0.101,0.014-0.156,0.02c-0.054,0.004-0.101,0.004-0.141,0.004
			c-0.198-0.002-0.354-0.072-0.47-0.207c-0.116-0.136-0.184-0.297-0.2-0.485l0.011-0.637c-0.363,0.458-0.824,0.806-1.381,1.044
			C154.362,27.023,153.763,27.138,153.12,27.127z M153.279,26.537c0.571,0.008,1.1-0.092,1.583-0.302
			c0.482-0.209,0.855-0.489,1.118-0.841c0.162-0.206,0.244-0.401,0.248-0.589l0.022-1.362c-0.354-0.145-0.723-0.254-1.107-0.33
			c-0.384-0.075-0.783-0.117-1.198-0.123c-0.385-0.006-0.737,0.031-1.054,0.109s-0.593,0.19-0.821,0.335
			c-0.229,0.145-0.408,0.322-0.535,0.532c-0.127,0.21-0.192,0.444-0.196,0.702c-0.005,0.255,0.041,0.499,0.136,0.728
			c0.095,0.229,0.23,0.426,0.405,0.591c0.175,0.166,0.383,0.299,0.624,0.396C152.744,26.482,153.001,26.532,153.279,26.537z"/>
		<path fill="#FFFFFF" d="M167.918,26.766c-0.041,0.019-0.108,0.056-0.203,0.106c-0.095,0.054-0.214,0.104-0.358,0.151
			c-0.144,0.047-0.304,0.088-0.483,0.126c-0.179,0.036-0.371,0.054-0.579,0.049c-0.207-0.002-0.402-0.036-0.584-0.099
			c-0.181-0.062-0.341-0.153-0.478-0.274c-0.136-0.12-0.243-0.265-0.318-0.436c-0.076-0.168-0.112-0.366-0.109-0.593l0.096-5.811
			l-1.083-0.018l0.008-0.606l1.085,0.017l0.042-2.639l0.741,0.013l-0.044,2.639l1.793,0.029l-0.009,0.607l-1.793-0.029l-0.091,5.632
			c-0.006,0.288,0.09,0.503,0.285,0.649c0.195,0.147,0.416,0.222,0.663,0.226c0.306,0.005,0.57-0.043,0.795-0.143
			s0.361-0.165,0.412-0.194L167.918,26.766z"/>
		<path fill="#FFFFFF" d="M172.318,27.379c-1.641-0.041-2.433-1.197-2.376-3.469l0.108-4.446l0.74,0.019l-0.105,4.341
			c-0.047,1.897,0.577,2.861,1.871,2.893c0.326,0.01,0.644-0.041,0.953-0.146s0.598-0.257,0.87-0.453
			c0.271-0.197,0.513-0.435,0.722-0.717c0.21-0.282,0.378-0.593,0.505-0.936l0.12-4.861l0.74,0.019l-0.164,6.668
			c-0.006,0.247,0.095,0.373,0.303,0.377l-0.017,0.669c-0.049,0.007-0.095,0.012-0.133,0.011c-0.04-0.001-0.071-0.001-0.091-0.002
			c-0.197-0.005-0.37-0.072-0.52-0.198c-0.15-0.127-0.223-0.296-0.218-0.503l0.027-1.156c-0.351,0.615-0.824,1.089-1.421,1.419
			C173.638,27.238,172.999,27.396,172.318,27.379z"/>
		<path fill="#FFFFFF" d="M181.773,27.653c-0.592-0.021-1.156-0.139-1.693-0.356c-0.536-0.215-1-0.529-1.391-0.938l0.387-0.489
			c0.401,0.389,0.822,0.68,1.261,0.872c0.438,0.194,0.924,0.299,1.457,0.318c0.67,0.022,1.218-0.099,1.637-0.366
			s0.638-0.653,0.655-1.156c0.008-0.237-0.037-0.438-0.135-0.605c-0.099-0.166-0.249-0.311-0.451-0.432
			c-0.205-0.12-0.458-0.229-0.76-0.33c-0.305-0.1-0.657-0.205-1.058-0.317c-0.432-0.114-0.806-0.226-1.124-0.336
			c-0.317-0.108-0.576-0.237-0.779-0.383c-0.202-0.146-0.352-0.318-0.449-0.521c-0.097-0.2-0.14-0.454-0.13-0.76
			c0.014-0.386,0.1-0.719,0.257-1c0.158-0.28,0.372-0.511,0.64-0.688c0.27-0.18,0.573-0.311,0.918-0.393
			c0.346-0.082,0.709-0.116,1.094-0.102c0.602,0.02,1.134,0.14,1.589,0.358c0.458,0.219,0.81,0.491,1.056,0.816l-0.429,0.384
			c-0.247-0.304-0.572-0.539-0.977-0.702c-0.405-0.162-0.84-0.251-1.305-0.266c-0.285-0.011-0.555,0.01-0.809,0.061
			c-0.255,0.051-0.478,0.137-0.67,0.258c-0.191,0.123-0.346,0.282-0.462,0.481c-0.115,0.199-0.178,0.437-0.188,0.713
			c-0.007,0.227,0.025,0.411,0.094,0.553c0.068,0.14,0.184,0.263,0.343,0.366c0.16,0.104,0.366,0.198,0.621,0.282
			c0.253,0.082,0.558,0.174,0.908,0.275c0.48,0.135,0.907,0.264,1.278,0.386s0.68,0.266,0.928,0.432
			c0.246,0.167,0.432,0.362,0.558,0.584c0.125,0.222,0.183,0.5,0.171,0.836c-0.024,0.691-0.312,1.233-0.863,1.623
			C183.398,27.504,182.672,27.685,181.773,27.653z"/>
		<path fill="#FFFFFF" d="M195.482,28.238c-0.663-0.033-1.243-0.238-1.745-0.614c-0.499-0.376-0.895-0.824-1.186-1.343l-0.242,4.812
			l-0.74-0.039l0.546-10.849l0.682,0.033l-0.077,1.54c0.341-0.478,0.777-0.859,1.31-1.144c0.535-0.285,1.099-0.413,1.688-0.382
			c0.533,0.026,1.022,0.165,1.465,0.414c0.441,0.25,0.817,0.568,1.124,0.955c0.306,0.386,0.541,0.826,0.697,1.318
			c0.159,0.492,0.226,0.99,0.2,1.494c-0.027,0.533-0.137,1.038-0.328,1.513c-0.192,0.475-0.454,0.888-0.781,1.236
			c-0.331,0.35-0.717,0.619-1.162,0.81C196.488,28.183,196.005,28.265,195.482,28.238z M195.337,27.563
			c0.444,0.022,0.854-0.052,1.228-0.221c0.374-0.169,0.698-0.402,0.971-0.699c0.272-0.299,0.486-0.644,0.646-1.038
			c0.156-0.393,0.247-0.796,0.268-1.211c0.021-0.443-0.036-0.869-0.174-1.276c-0.138-0.408-0.339-0.771-0.605-1.092
			c-0.266-0.32-0.582-0.58-0.947-0.782c-0.366-0.2-0.762-0.313-1.186-0.334c-0.266-0.013-0.552,0.029-0.858,0.127
			c-0.309,0.099-0.599,0.238-0.876,0.417c-0.275,0.18-0.514,0.386-0.714,0.624c-0.198,0.238-0.32,0.493-0.364,0.768l-0.129,2.532
			c0.115,0.293,0.265,0.567,0.449,0.824c0.187,0.255,0.396,0.485,0.635,0.685c0.236,0.2,0.496,0.358,0.776,0.476
			C194.737,27.48,195.03,27.548,195.337,27.563z"/>
		<path fill="#FFFFFF" d="M201.514,28.416l0.448-7.693l0.74,0.043l-0.448,7.694L201.514,28.416z M202.063,18.977l0.078-1.36
			l0.741,0.042l-0.08,1.361L202.063,18.977z"/>
		<path fill="#FFFFFF" d="M208.554,29.003c-0.543-0.037-1.036-0.176-1.486-0.418c-0.45-0.244-0.833-0.561-1.148-0.952
			c-0.315-0.393-0.554-0.837-0.714-1.332c-0.161-0.496-0.224-1.021-0.187-1.572c0.036-0.542,0.166-1.045,0.391-1.512
			c0.223-0.465,0.513-0.867,0.873-1.205c0.359-0.338,0.774-0.595,1.247-0.771s0.975-0.248,1.506-0.213
			c0.542,0.036,1.039,0.174,1.488,0.417c0.449,0.244,0.829,0.555,1.141,0.938c0.313,0.382,0.545,0.819,0.702,1.309
			c0.155,0.491,0.216,1.003,0.181,1.534c-0.004,0.05-0.008,0.111-0.012,0.187c-0.005,0.072-0.014,0.119-0.024,0.139l-6.745-0.446
			c0.001,0.446,0.078,0.865,0.229,1.255c0.152,0.393,0.355,0.735,0.607,1.029c0.254,0.293,0.553,0.531,0.897,0.712
			s0.719,0.285,1.123,0.311c0.267,0.019,0.529-0.001,0.792-0.058c0.261-0.058,0.506-0.143,0.736-0.256
			c0.23-0.112,0.438-0.255,0.623-0.427c0.184-0.171,0.333-0.362,0.445-0.573l0.64,0.221c-0.128,0.269-0.304,0.511-0.531,0.729
			s-0.486,0.402-0.778,0.55c-0.292,0.149-0.609,0.259-0.951,0.332C209.258,29.001,208.908,29.025,208.554,29.003z M211.854,24.912
			c0-0.456-0.073-0.877-0.222-1.264c-0.147-0.385-0.348-0.723-0.601-1.012c-0.254-0.289-0.554-0.521-0.897-0.697
			c-0.346-0.177-0.719-0.278-1.125-0.305c-0.403-0.027-0.789,0.024-1.152,0.155c-0.366,0.129-0.692,0.32-0.982,0.574
			c-0.289,0.253-0.526,0.563-0.714,0.932c-0.188,0.369-0.311,0.774-0.37,1.216L211.854,24.912z"/>
		<path fill="#FFFFFF" d="M217.04,29.605c-0.592-0.046-1.149-0.187-1.678-0.424c-0.526-0.239-0.978-0.571-1.351-0.997l0.407-0.472
			c0.387,0.405,0.794,0.714,1.224,0.923c0.429,0.213,0.911,0.338,1.442,0.379c0.671,0.051,1.22-0.048,1.65-0.299
			c0.43-0.249,0.665-0.625,0.702-1.128c0.019-0.236-0.019-0.44-0.109-0.61s-0.235-0.319-0.435-0.45
			c-0.197-0.127-0.446-0.248-0.745-0.36c-0.3-0.113-0.646-0.233-1.042-0.362c-0.428-0.131-0.796-0.259-1.107-0.382
			c-0.313-0.122-0.567-0.261-0.765-0.415c-0.195-0.151-0.339-0.333-0.427-0.537c-0.09-0.205-0.121-0.459-0.098-0.766
			c0.028-0.384,0.129-0.714,0.297-0.987c0.169-0.274,0.393-0.497,0.667-0.663c0.276-0.167,0.588-0.285,0.935-0.353
			c0.348-0.068,0.713-0.088,1.096-0.059c0.601,0.046,1.127,0.188,1.573,0.425c0.448,0.238,0.788,0.523,1.02,0.857l-0.443,0.368
			c-0.233-0.314-0.55-0.563-0.946-0.74c-0.398-0.181-0.829-0.286-1.292-0.322c-0.285-0.022-0.557-0.012-0.812,0.027
			c-0.256,0.04-0.481,0.117-0.679,0.23c-0.197,0.114-0.357,0.269-0.48,0.462c-0.125,0.194-0.197,0.428-0.218,0.704
			c-0.019,0.228,0.006,0.412,0.069,0.557c0.064,0.142,0.173,0.27,0.326,0.381c0.156,0.11,0.358,0.211,0.609,0.306
			c0.25,0.093,0.55,0.197,0.897,0.313c0.475,0.154,0.894,0.302,1.261,0.437c0.365,0.138,0.669,0.295,0.907,0.471
			c0.24,0.179,0.417,0.379,0.534,0.606c0.116,0.227,0.163,0.508,0.136,0.844c-0.053,0.688-0.361,1.218-0.931,1.584
			C218.67,29.524,217.936,29.673,217.04,29.605z"/>
		<path fill="#FFFFFF" d="M230.112,30.701c-0.531-0.048-1.014-0.205-1.446-0.468c-0.432-0.263-0.796-0.594-1.091-0.993
			c-0.296-0.398-0.514-0.846-0.65-1.34c-0.139-0.494-0.184-0.996-0.138-1.508c0.05-0.532,0.185-1.03,0.405-1.496
			c0.222-0.465,0.507-0.868,0.854-1.202c0.349-0.334,0.747-0.591,1.196-0.77c0.446-0.176,0.926-0.241,1.438-0.195
			c0.336,0.031,0.645,0.11,0.931,0.235c0.288,0.125,0.55,0.281,0.792,0.466c0.241,0.187,0.455,0.398,0.642,0.633
			c0.186,0.236,0.343,0.484,0.467,0.743l0.438-4.767l0.738,0.067l-0.896,9.741c-0.023,0.246,0.069,0.379,0.276,0.397l-0.062,0.664
			c-0.06,0.005-0.109,0.007-0.149,0.009c-0.04,0-0.08,0-0.119-0.004c-0.197-0.019-0.356-0.108-0.48-0.275
			c-0.125-0.164-0.179-0.33-0.163-0.498l0.079-0.856c-0.362,0.482-0.819,0.854-1.375,1.108
			C231.245,30.652,230.684,30.754,230.112,30.701z M230.307,30.05c0.265,0.024,0.555-0.004,0.871-0.084
			c0.314-0.08,0.611-0.204,0.89-0.372c0.277-0.167,0.522-0.367,0.731-0.596c0.21-0.229,0.342-0.483,0.397-0.768l0.233-2.523
			c-0.084-0.284-0.215-0.562-0.394-0.832c-0.178-0.269-0.387-0.507-0.626-0.711c-0.238-0.207-0.502-0.376-0.786-0.512
			c-0.286-0.134-0.565-0.216-0.843-0.241c-0.441-0.041-0.853,0.017-1.235,0.176s-0.716,0.382-0.999,0.667
			c-0.284,0.286-0.514,0.624-0.689,1.008c-0.173,0.386-0.279,0.792-0.318,1.213c-0.041,0.443-0.001,0.869,0.121,1.276
			c0.121,0.409,0.308,0.778,0.561,1.108c0.253,0.331,0.554,0.603,0.906,0.813C229.48,29.884,229.873,30.01,230.307,30.05z"/>
		<path fill="#FFFFFF" d="M239.988,31.666c-0.54-0.057-1.03-0.214-1.471-0.473c-0.44-0.26-0.811-0.592-1.11-0.994
			c-0.303-0.404-0.522-0.856-0.665-1.357c-0.143-0.502-0.185-1.027-0.128-1.578c0.056-0.542,0.204-1.041,0.444-1.497
			c0.241-0.457,0.548-0.848,0.92-1.173c0.37-0.322,0.796-0.565,1.273-0.725c0.479-0.158,0.983-0.211,1.514-0.155
			c0.54,0.056,1.031,0.212,1.472,0.472c0.44,0.259,0.808,0.584,1.106,0.978c0.296,0.393,0.513,0.838,0.651,1.334
			c0.138,0.496,0.178,1.01,0.124,1.54c-0.005,0.049-0.013,0.11-0.02,0.185c-0.007,0.074-0.019,0.121-0.028,0.139l-6.724-0.696
			c-0.016,0.446,0.044,0.867,0.182,1.265c0.139,0.396,0.328,0.747,0.569,1.049c0.242,0.305,0.532,0.553,0.869,0.746
			c0.338,0.194,0.708,0.311,1.112,0.353c0.265,0.028,0.529,0.018,0.791-0.03c0.264-0.047,0.514-0.124,0.747-0.228
			s0.447-0.24,0.639-0.404c0.19-0.165,0.346-0.349,0.467-0.555l0.63,0.244c-0.137,0.266-0.322,0.502-0.558,0.71
			c-0.235,0.209-0.5,0.383-0.799,0.522c-0.298,0.137-0.617,0.236-0.962,0.294C240.692,31.69,240.342,31.702,239.988,31.666z
			 M243.438,27.7c0.017-0.454-0.041-0.878-0.175-1.27c-0.132-0.391-0.32-0.735-0.563-1.035c-0.242-0.298-0.532-0.54-0.871-0.73
			c-0.338-0.189-0.708-0.304-1.11-0.346c-0.404-0.041-0.79-0.005-1.159,0.111c-0.369,0.115-0.703,0.294-1.002,0.538
			c-0.299,0.241-0.549,0.543-0.749,0.905c-0.202,0.361-0.339,0.762-0.415,1.202L243.438,27.7z"/>
		<path fill="#FFFFFF" d="M248.468,32.585c-0.588-0.066-1.143-0.229-1.659-0.485c-0.519-0.258-0.956-0.606-1.313-1.046l0.425-0.458
			c0.37,0.419,0.766,0.743,1.188,0.969c0.421,0.229,0.897,0.371,1.428,0.431c0.668,0.076,1.222-0.002,1.661-0.237
			c0.438-0.233,0.688-0.6,0.743-1.101c0.027-0.235-0.002-0.44-0.087-0.614c-0.084-0.174-0.224-0.328-0.417-0.466
			c-0.193-0.135-0.437-0.265-0.731-0.388c-0.294-0.124-0.638-0.256-1.028-0.401c-0.421-0.146-0.785-0.287-1.093-0.422
			c-0.309-0.136-0.558-0.282-0.748-0.443c-0.19-0.159-0.327-0.346-0.408-0.552c-0.081-0.209-0.104-0.466-0.068-0.771
			c0.044-0.383,0.156-0.707,0.334-0.976c0.181-0.267,0.411-0.48,0.692-0.638c0.282-0.157,0.597-0.261,0.945-0.315
			c0.351-0.056,0.716-0.061,1.1-0.019c0.599,0.068,1.117,0.23,1.557,0.483c0.438,0.254,0.767,0.553,0.986,0.896l-0.457,0.35
			c-0.223-0.323-0.528-0.581-0.92-0.774c-0.391-0.193-0.816-0.317-1.278-0.369c-0.285-0.034-0.555-0.034-0.812-0.004
			c-0.257,0.031-0.485,0.101-0.688,0.206c-0.202,0.106-0.367,0.254-0.498,0.443c-0.131,0.19-0.211,0.421-0.242,0.695
			c-0.027,0.226-0.01,0.413,0.048,0.558c0.059,0.146,0.163,0.277,0.313,0.394c0.15,0.117,0.348,0.227,0.596,0.329
			c0.247,0.103,0.543,0.219,0.886,0.346c0.468,0.173,0.882,0.334,1.243,0.485s0.658,0.318,0.891,0.505
			c0.231,0.185,0.401,0.394,0.51,0.625c0.109,0.231,0.144,0.513,0.104,0.846c-0.077,0.688-0.407,1.204-0.988,1.551
			C250.099,32.565,249.362,32.688,248.468,32.585z"/>
		<path fill="#FFFFFF" d="M256.98,33.597c-0.53-0.067-1.008-0.238-1.431-0.513c-0.423-0.278-0.776-0.619-1.06-1.028
			c-0.282-0.41-0.485-0.862-0.607-1.36c-0.123-0.499-0.152-1.002-0.089-1.513c0.065-0.528,0.217-1.022,0.453-1.481
			c0.236-0.458,0.533-0.851,0.893-1.175c0.358-0.323,0.765-0.566,1.219-0.729c0.454-0.164,0.935-0.212,1.444-0.149
			c0.333,0.041,0.642,0.13,0.923,0.264c0.283,0.135,0.541,0.299,0.775,0.491c0.236,0.195,0.441,0.413,0.621,0.654
			c0.18,0.242,0.328,0.494,0.444,0.756l0.589-4.751l0.736,0.092l-1.206,9.707c-0.029,0.246,0.058,0.382,0.264,0.406l-0.082,0.663
			c-0.061,0.003-0.11,0.003-0.15,0.003c-0.039,0-0.079-0.002-0.119-0.007c-0.195-0.025-0.354-0.122-0.472-0.291
			c-0.117-0.169-0.168-0.337-0.146-0.503l0.105-0.852c-0.377,0.469-0.848,0.824-1.409,1.063
			C258.114,33.584,257.549,33.668,256.98,33.597z M257.194,32.951c0.265,0.034,0.556,0.015,0.873-0.055
			c0.317-0.07,0.618-0.184,0.902-0.344c0.283-0.16,0.532-0.349,0.75-0.57c0.217-0.223,0.357-0.474,0.422-0.755l0.313-2.516
			c-0.074-0.288-0.196-0.569-0.366-0.845c-0.17-0.274-0.37-0.52-0.602-0.731c-0.233-0.214-0.49-0.392-0.771-0.536
			c-0.28-0.145-0.559-0.233-0.832-0.267c-0.441-0.056-0.855-0.011-1.243,0.136c-0.385,0.146-0.725,0.358-1.02,0.635
			c-0.293,0.277-0.532,0.606-0.719,0.985c-0.188,0.381-0.308,0.782-0.358,1.204c-0.056,0.441-0.029,0.869,0.08,1.278
			c0.107,0.414,0.282,0.788,0.524,1.127c0.241,0.338,0.534,0.619,0.881,0.841C256.375,32.761,256.763,32.898,257.194,32.951z"/>
		<path fill="#FFFFFF" d="M266.806,34.874c-0.538-0.072-1.022-0.245-1.455-0.518c-0.431-0.273-0.791-0.617-1.078-1.031
			c-0.289-0.412-0.495-0.871-0.622-1.377c-0.125-0.505-0.15-1.032-0.077-1.581c0.074-0.538,0.238-1.032,0.494-1.481
			c0.255-0.449,0.573-0.828,0.955-1.143c0.381-0.311,0.813-0.54,1.297-0.683c0.483-0.145,0.988-0.181,1.517-0.108
			c0.539,0.072,1.023,0.246,1.456,0.519s0.789,0.611,1.073,1.013c0.285,0.403,0.488,0.854,0.608,1.355
			c0.122,0.5,0.148,1.015,0.075,1.542c-0.005,0.049-0.015,0.111-0.023,0.182c-0.012,0.076-0.021,0.122-0.034,0.139l-6.697-0.908
			c-0.031,0.445,0.016,0.867,0.142,1.268c0.125,0.401,0.305,0.759,0.536,1.068c0.231,0.311,0.514,0.567,0.846,0.772
			c0.33,0.205,0.696,0.334,1.099,0.388c0.264,0.037,0.527,0.034,0.792-0.004c0.266-0.039,0.517-0.106,0.754-0.204
			c0.238-0.098,0.454-0.226,0.65-0.383c0.195-0.158,0.356-0.337,0.485-0.54l0.621,0.263c-0.146,0.261-0.338,0.491-0.579,0.692
			c-0.243,0.201-0.514,0.367-0.815,0.495c-0.302,0.13-0.625,0.217-0.972,0.265C267.509,34.922,267.158,34.922,266.806,34.874z
			 M270.38,31.021c0.033-0.453-0.013-0.879-0.132-1.274c-0.122-0.394-0.299-0.746-0.532-1.051c-0.232-0.307-0.514-0.56-0.846-0.759
			c-0.332-0.198-0.699-0.327-1.101-0.38c-0.401-0.056-0.789-0.031-1.162,0.072c-0.373,0.104-0.713,0.273-1.019,0.506
			c-0.305,0.232-0.564,0.526-0.777,0.882c-0.213,0.354-0.363,0.75-0.453,1.187L270.38,31.021z"/>
		<path fill="#FFFFFF" d="M281.995,36.233l-0.103,0.674l-4.675-0.707l0.103-0.673l2.081,0.313l1.022-6.77
			c-0.105,0.104-0.263,0.212-0.469,0.32c-0.207,0.108-0.436,0.204-0.688,0.291c-0.253,0.086-0.509,0.154-0.764,0.2
			c-0.257,0.047-0.484,0.055-0.68,0.024l0.111-0.732c0.243,0.038,0.512,0.011,0.807-0.081c0.293-0.09,0.572-0.2,0.837-0.331
			c0.265-0.131,0.489-0.258,0.673-0.385s0.287-0.204,0.312-0.23l0.733,0.11l-1.163,7.695L281.995,36.233z"/>
		<path fill="#FFFFFF" d="M284.199,32.343c0.079-0.499,0.246-0.948,0.501-1.345c0.254-0.401,0.573-0.735,0.957-1.004
			c0.383-0.268,0.81-0.458,1.278-0.574s0.962-0.13,1.478-0.048c0.537,0.086,1.015,0.263,1.433,0.53
			c0.417,0.268,0.762,0.607,1.035,1.022c0.274,0.414,0.462,0.9,0.563,1.457s0.098,1.161-0.007,1.815
			c-0.175,1.093-0.42,2.024-0.734,2.793c-0.313,0.771-0.68,1.392-1.096,1.867c-0.415,0.474-0.877,0.8-1.381,0.979
			c-0.505,0.179-1.033,0.223-1.59,0.134c-0.703-0.112-1.296-0.394-1.779-0.841c-0.483-0.448-0.808-1.006-0.97-1.673l0.575-0.312
			c0.11,0.558,0.374,1.035,0.791,1.434c0.417,0.396,0.913,0.641,1.488,0.732c0.459,0.075,0.894,0.031,1.305-0.127
			c0.409-0.16,0.781-0.43,1.113-0.813c0.332-0.382,0.622-0.867,0.872-1.458c0.251-0.592,0.439-1.281,0.565-2.072
			c-0.157,0.297-0.359,0.558-0.605,0.781c-0.246,0.228-0.519,0.41-0.816,0.553c-0.299,0.142-0.616,0.239-0.955,0.29
			c-0.338,0.05-0.684,0.048-1.033-0.01c-0.499-0.08-0.948-0.247-1.347-0.5c-0.399-0.255-0.734-0.568-1.005-0.942
			c-0.271-0.374-0.463-0.79-0.579-1.25C284.14,33.304,284.121,32.831,284.199,32.343z M288.295,30.027
			c-0.401-0.063-0.792-0.048-1.172,0.045c-0.38,0.095-0.724,0.252-1.029,0.473s-0.565,0.494-0.777,0.821
			c-0.213,0.326-0.352,0.689-0.415,1.088c-0.064,0.4-0.047,0.79,0.053,1.166c0.099,0.376,0.26,0.717,0.481,1.022
			c0.221,0.307,0.497,0.564,0.827,0.78c0.332,0.212,0.697,0.352,1.097,0.416c0.4,0.063,0.792,0.047,1.173-0.052
			c0.381-0.099,0.725-0.259,1.029-0.48c0.306-0.222,0.564-0.494,0.779-0.82c0.212-0.327,0.349-0.69,0.414-1.091
			c0.063-0.391,0.043-0.772-0.056-1.149c-0.1-0.375-0.261-0.718-0.48-1.022c-0.222-0.306-0.497-0.566-0.828-0.777
			C289.059,30.232,288.693,30.093,288.295,30.027z"/>
		<path fill="#FFFFFF" d="M296.909,34.705c0.467,0.082,0.893,0.237,1.273,0.468c0.381,0.23,0.701,0.518,0.957,0.864
			s0.438,0.734,0.544,1.168c0.105,0.434,0.116,0.895,0.033,1.382c-0.089,0.517-0.264,0.965-0.525,1.346
			c-0.261,0.381-0.578,0.695-0.95,0.942c-0.373,0.246-0.788,0.414-1.244,0.5c-0.458,0.087-0.923,0.089-1.4,0.007
			c-0.74-0.128-1.373-0.429-1.897-0.905c-0.525-0.476-0.881-1.047-1.067-1.709l0.594-0.214c0.176,0.551,0.485,1.024,0.93,1.415
			c0.443,0.393,0.962,0.639,1.558,0.741c0.389,0.066,0.765,0.064,1.129-0.009c0.362-0.073,0.689-0.209,0.98-0.411
			s0.536-0.455,0.739-0.76c0.202-0.305,0.34-0.663,0.41-1.072c0.066-0.39,0.056-0.757-0.029-1.103
			c-0.086-0.346-0.23-0.655-0.434-0.932s-0.457-0.506-0.762-0.688c-0.306-0.183-0.646-0.307-1.026-0.373
			c-0.497-0.085-0.983-0.056-1.459,0.089c-0.477,0.144-0.889,0.396-1.242,0.757l-0.701-0.121c0.021-0.067,0.07-0.2,0.15-0.394
			c0.078-0.199,0.169-0.433,0.271-0.707c0.102-0.272,0.216-0.575,0.343-0.903c0.127-0.329,0.253-0.658,0.381-0.988
			c0.303-0.771,0.634-1.624,0.997-2.565l4.966,0.854l-0.117,0.686l-4.411-0.758l-1.523,3.963c0.346-0.26,0.737-0.44,1.176-0.541
			C295.988,34.636,296.442,34.626,296.909,34.705z"/>
		<path fill="#FFFFFF" d="M309.601,37.234c-0.118,0.641-0.316,1.215-0.595,1.722c-0.278,0.507-0.616,0.927-1.014,1.261
			c-0.399,0.334-0.839,0.57-1.321,0.708c-0.482,0.137-0.984,0.159-1.511,0.063c-0.524-0.097-0.987-0.294-1.389-0.594
			c-0.403-0.299-0.729-0.675-0.978-1.128c-0.248-0.452-0.414-0.965-0.495-1.537c-0.08-0.572-0.063-1.181,0.057-1.821
			c0.116-0.64,0.314-1.215,0.593-1.722c0.278-0.507,0.614-0.928,1.007-1.263c0.394-0.334,0.831-0.573,1.313-0.715
			c0.483-0.143,0.987-0.166,1.514-0.07c0.524,0.097,0.987,0.297,1.389,0.602c0.4,0.304,0.729,0.683,0.981,1.136
			c0.254,0.454,0.421,0.964,0.502,1.539C309.735,35.987,309.717,36.593,309.601,37.234z M308.856,37.099
			c0.102-0.555,0.124-1.075,0.067-1.563c-0.055-0.486-0.182-0.917-0.374-1.288c-0.193-0.372-0.449-0.683-0.771-0.932
			c-0.32-0.25-0.695-0.414-1.122-0.492c-0.429-0.079-0.836-0.058-1.225,0.061c-0.389,0.12-0.739,0.321-1.052,0.599
			c-0.313,0.279-0.581,0.637-0.807,1.072c-0.226,0.437-0.389,0.932-0.489,1.486c-0.102,0.552-0.125,1.07-0.067,1.553
			c0.057,0.483,0.183,0.914,0.374,1.29c0.191,0.378,0.449,0.688,0.771,0.933c0.323,0.245,0.698,0.406,1.125,0.484
			c0.429,0.079,0.836,0.06,1.224-0.056c0.388-0.113,0.737-0.313,1.051-0.599c0.313-0.282,0.583-0.641,0.808-1.071
			C308.592,38.146,308.755,37.652,308.856,37.099z"/>
	</g>
</g>
<g>
	<g>
		<path fill="#FFFFFF" d="M22.783,140.844c-0.865,0-1.658-0.188-2.385-0.557c-0.725-0.373-1.35-0.877-1.876-1.516
			c-0.527-0.639-0.938-1.387-1.23-2.241c-0.294-0.854-0.441-1.774-0.441-2.759s0.161-1.898,0.48-2.745
			c0.317-0.847,0.764-1.585,1.334-2.214c0.568-0.631,1.242-1.127,2.019-1.491c0.777-0.362,1.614-0.543,2.514-0.543
			c1.035,0,1.95,0.237,2.746,0.712c0.793,0.476,1.442,1.102,1.943,1.878v-2.356h3.031v14.92c0,0.379,0.066,0.643,0.207,0.789
			c0.138,0.146,0.379,0.229,0.725,0.246v2.953c-0.294,0.051-0.614,0.09-0.959,0.115c-0.345,0.027-0.655,0.039-0.931,0.039
			c-0.348,0-0.669-0.059-0.973-0.182c-0.301-0.118-0.566-0.283-0.789-0.492c-0.225-0.207-0.407-0.453-0.545-0.738
			c-0.138-0.283-0.207-0.6-0.207-0.944v-5.517c-0.501,0.881-1.147,1.541-1.943,1.982C24.708,140.623,23.802,140.844,22.783,140.844z
			 M24.078,137.891c0.743,0,1.389-0.207,1.943-0.622c0.552-0.415,1.025-0.95,1.423-1.606v-3.213
			c-0.104-0.379-0.271-0.732-0.506-1.061c-0.232-0.328-0.503-0.617-0.814-0.868c-0.311-0.249-0.648-0.444-1.012-0.582
			c-0.361-0.138-0.725-0.206-1.088-0.206c-0.536,0-1.023,0.111-1.462,0.335c-0.442,0.226-0.821,0.531-1.141,0.92
			c-0.32,0.388-0.57,0.833-0.75,1.333c-0.182,0.502-0.273,1.02-0.273,1.555c0,0.57,0.092,1.098,0.273,1.58
			c0.18,0.482,0.43,0.906,0.75,1.27c0.319,0.362,0.704,0.647,1.154,0.855C23.024,137.787,23.523,137.891,24.078,137.891z"/>
		<path fill="#FFFFFF" d="M41.327,140.844c-1.398,0-2.46-0.448-3.185-1.348c-0.727-0.896-1.088-2.228-1.088-3.988v-8.496h3.47v7.744
			c0,2.09,0.752,3.135,2.254,3.135c0.673,0,1.324-0.203,1.955-0.609c0.63-0.404,1.145-1.023,1.543-1.852v-8.418h3.47v9.583
			c0,0.362,0.064,0.622,0.193,0.777c0.131,0.155,0.343,0.242,0.635,0.259v2.953c-0.345,0.068-0.635,0.111-0.867,0.129
			c-0.232,0.018-0.444,0.027-0.635,0.027c-0.621,0-1.127-0.143-1.516-0.428s-0.616-0.68-0.685-1.18l-0.079-1.087
			c-0.604,0.933-1.382,1.632-2.332,2.099C43.512,140.609,42.468,140.844,41.327,140.844z"/>
		<path fill="#FFFFFF" d="M62.594,140.844c-1.088,0-2.072-0.188-2.953-0.557c-0.881-0.373-1.633-0.877-2.253-1.516
			c-0.621-0.639-1.102-1.383-1.438-2.229c-0.338-0.847-0.506-1.734-0.506-2.668c0-0.967,0.163-1.879,0.492-2.732
			c0.329-0.854,0.802-1.606,1.426-2.254c0.621-0.646,1.375-1.161,2.265-1.541c0.89-0.381,1.888-0.569,2.992-0.569
			c1.106,0,2.095,0.188,2.966,0.569c0.872,0.38,1.614,0.89,2.229,1.529c0.611,0.639,1.079,1.381,1.398,2.228
			c0.32,0.847,0.479,1.726,0.479,2.642c0,0.224-0.005,0.439-0.012,0.646c-0.009,0.207-0.03,0.381-0.064,0.52H59.124
			c0.051,0.533,0.18,1.01,0.389,1.424c0.207,0.414,0.474,0.768,0.803,1.063c0.327,0.293,0.699,0.518,1.113,0.674
			c0.414,0.154,0.846,0.232,1.295,0.232c0.692,0,1.343-0.168,1.957-0.506c0.611-0.336,1.03-0.779,1.255-1.334l2.978,0.83
			c-0.499,1.035-1.299,1.886-2.394,2.551C65.422,140.512,64.114,140.844,62.594,140.844z M66.117,132.658
			c-0.087-1.02-0.462-1.835-1.127-2.448c-0.665-0.612-1.472-0.92-2.421-0.92c-0.467,0-0.904,0.083-1.309,0.246
			c-0.407,0.165-0.763,0.394-1.076,0.688c-0.31,0.294-0.565,0.646-0.763,1.062c-0.198,0.414-0.315,0.873-0.35,1.373H66.117z"/>
		<path fill="#FFFFFF" d="M96.862,140.584h-3.47v-7.615c0-1.088-0.191-1.883-0.57-2.385c-0.381-0.498-0.908-0.749-1.58-0.749
			c-0.347,0-0.699,0.068-1.063,0.207c-0.363,0.138-0.704,0.333-1.023,0.581c-0.319,0.252-0.609,0.551-0.867,0.895
			c-0.26,0.346-0.451,0.725-0.57,1.141v7.926h-3.473v-13.572h3.134v2.512c0.501-0.863,1.226-1.537,2.176-2.02
			c0.95-0.483,2.021-0.726,3.212-0.726c0.846,0,1.536,0.155,2.072,0.466c0.536,0.311,0.95,0.717,1.244,1.219
			c0.294,0.5,0.497,1.07,0.609,1.708c0.11,0.64,0.168,1.288,0.168,1.942V140.584z"/>
		<path fill="#FFFFFF" d="M109.296,140.844c-1.088,0-2.072-0.188-2.953-0.557c-0.881-0.373-1.633-0.877-2.254-1.516
			c-0.621-0.639-1.102-1.383-1.437-2.229c-0.338-0.847-0.506-1.734-0.506-2.668c0-0.967,0.163-1.879,0.492-2.732
			c0.329-0.854,0.802-1.606,1.425-2.254c0.621-0.646,1.375-1.161,2.265-1.541c0.89-0.381,1.888-0.569,2.992-0.569
			c1.106,0,2.095,0.188,2.966,0.569c0.872,0.38,1.614,0.89,2.229,1.529c0.611,0.639,1.078,1.381,1.398,2.228
			s0.479,1.726,0.479,2.642c0,0.224-0.005,0.439-0.012,0.646c-0.009,0.207-0.03,0.381-0.064,0.52h-10.491
			c0.051,0.533,0.179,1.01,0.389,1.424c0.207,0.414,0.474,0.768,0.803,1.063c0.326,0.293,0.699,0.518,1.113,0.674
			c0.414,0.154,0.846,0.232,1.295,0.232c0.692,0,1.343-0.168,1.957-0.506c0.612-0.336,1.03-0.779,1.256-1.334l2.978,0.83
			c-0.499,1.035-1.299,1.886-2.394,2.551C112.125,140.512,110.816,140.844,109.296,140.844z M112.819,132.658
			c-0.087-1.02-0.462-1.835-1.127-2.448c-0.665-0.612-1.472-0.92-2.421-0.92c-0.467,0-0.904,0.083-1.309,0.246
			c-0.407,0.165-0.763,0.394-1.076,0.688c-0.311,0.294-0.565,0.646-0.763,1.062c-0.198,0.414-0.315,0.873-0.35,1.373H112.819z"/>
		<path fill="#FFFFFF" d="M120.771,133.797c0-0.949,0.163-1.846,0.492-2.692c0.327-0.847,0.803-1.589,1.424-2.228
			c0.623-0.64,1.373-1.149,2.253-1.529c0.881-0.381,1.874-0.569,2.98-0.569c1.483,0,2.748,0.319,3.794,0.958
			c1.044,0.639,1.826,1.476,2.344,2.513l-3.395,1.036c-0.292-0.5-0.681-0.885-1.164-1.153c-0.485-0.268-1.021-0.399-1.607-0.399
			c-0.501,0-0.966,0.098-1.398,0.296c-0.433,0.198-0.807,0.476-1.127,0.829c-0.32,0.354-0.57,0.781-0.752,1.281
			c-0.182,0.502-0.271,1.054-0.271,1.658c0,0.605,0.094,1.156,0.285,1.658s0.444,0.933,0.764,1.295
			c0.319,0.363,0.694,0.645,1.127,0.842c0.432,0.199,0.89,0.299,1.373,0.299c0.623,0,1.196-0.156,1.723-0.467
			c0.526-0.311,0.895-0.689,1.101-1.14l3.395,1.036c-0.467,1.035-1.235,1.883-2.307,2.539c-1.072,0.654-2.357,0.984-3.859,0.984
			c-1.106,0-2.099-0.191-2.98-0.57c-0.881-0.38-1.63-0.895-2.254-1.541c-0.621-0.648-1.099-1.399-1.437-2.254
			C120.939,135.623,120.771,134.73,120.771,133.797z"/>
		<path fill="#FFFFFF" d="M145.51,140.844c-1.09,0-2.074-0.188-2.955-0.557c-0.88-0.373-1.63-0.877-2.253-1.516
			c-0.621-0.639-1.099-1.383-1.437-2.229c-0.336-0.847-0.504-1.734-0.504-2.668c0-0.967,0.164-1.879,0.492-2.732
			c0.327-0.854,0.803-1.606,1.423-2.254c0.623-0.646,1.377-1.161,2.268-1.541c0.888-0.381,1.886-0.569,2.992-0.569
			c1.104,0,2.093,0.188,2.964,0.569c0.874,0.38,1.616,0.89,2.228,1.529c0.614,0.639,1.079,1.381,1.398,2.228
			c0.319,0.847,0.48,1.726,0.48,2.642c0,0.224-0.004,0.439-0.014,0.646s-0.03,0.381-0.064,0.52h-10.491
			c0.053,0.533,0.182,1.01,0.389,1.424s0.476,0.768,0.802,1.063c0.329,0.293,0.699,0.518,1.115,0.674
			c0.414,0.154,0.844,0.232,1.295,0.232c0.69,0,1.343-0.168,1.955-0.506c0.614-0.336,1.033-0.779,1.258-1.334l2.978,0.83
			c-0.501,1.035-1.299,1.886-2.396,2.551C148.336,140.512,147.028,140.844,145.51,140.844z M149.031,132.658
			c-0.085-1.02-0.462-1.835-1.127-2.448c-0.665-0.612-1.472-0.92-2.421-0.92c-0.467,0-0.901,0.083-1.309,0.246
			c-0.405,0.165-0.764,0.394-1.074,0.688c-0.311,0.294-0.566,0.646-0.764,1.062c-0.2,0.414-0.315,0.873-0.35,1.373H149.031z"/>
		<path fill="#FFFFFF" d="M162.967,140.844c-1.139,0-2.254-0.182-3.342-0.545c-1.087-0.361-2.021-0.881-2.796-1.554l1.294-2.177
			c0.828,0.588,1.635,1.033,2.421,1.335c0.787,0.302,1.566,0.452,2.344,0.452c0.692,0,1.234-0.129,1.633-0.389
			c0.397-0.258,0.596-0.629,0.596-1.113c0-0.482-0.232-0.838-0.699-1.061c-0.467-0.225-1.226-0.484-2.279-0.777
			c-0.881-0.242-1.633-0.476-2.254-0.701c-0.623-0.223-1.124-0.478-1.503-0.764c-0.379-0.285-0.656-0.612-0.828-0.984
			c-0.172-0.37-0.26-0.816-0.26-1.334c0-0.689,0.133-1.313,0.402-1.864c0.267-0.552,0.644-1.022,1.126-1.411
			c0.483-0.389,1.049-0.687,1.697-0.895c0.646-0.207,1.351-0.311,2.111-0.311c1.019,0,1.973,0.146,2.86,0.441
			c0.891,0.293,1.707,0.768,2.449,1.423l-1.398,2.1c-0.691-0.519-1.361-0.899-2.007-1.141c-0.648-0.241-1.292-0.363-1.932-0.363
			c-0.587,0-1.079,0.122-1.477,0.363c-0.396,0.241-0.596,0.63-0.596,1.166c0,0.241,0.049,0.44,0.143,0.596s0.246,0.294,0.453,0.413
			c0.207,0.123,0.48,0.238,0.816,0.35c0.338,0.113,0.757,0.23,1.258,0.35c0.932,0.243,1.729,0.486,2.394,0.727
			c0.665,0.242,1.21,0.518,1.633,0.828c0.424,0.311,0.733,0.67,0.934,1.076c0.198,0.404,0.297,0.893,0.297,1.463
			c0,1.33-0.492,2.379-1.477,3.148C165.997,140.459,164.659,140.844,162.967,140.844z"/>
		<path fill="#FFFFFF" d="M173.818,125.121v-3.445h3.473v3.445H173.818z M173.818,140.584v-13.572h3.473v13.572H173.818z"/>
		<path fill="#FFFFFF" d="M191.666,139.885c-0.467,0.207-1.035,0.414-1.709,0.621s-1.382,0.313-2.125,0.313
			c-0.482,0-0.936-0.063-1.359-0.182c-0.423-0.123-0.795-0.315-1.115-0.584c-0.319-0.268-0.572-0.612-0.763-1.035
			c-0.191-0.424-0.285-0.938-0.285-1.542v-7.797h-1.787v-2.667h1.787v-4.404h3.472v4.404h2.85v2.667h-2.85v6.632
			c0,0.482,0.124,0.824,0.375,1.022s0.557,0.298,0.92,0.298s0.715-0.061,1.063-0.183c0.345-0.118,0.621-0.222,0.828-0.31
			L191.666,139.885z"/>
		<path fill="#FFFFFF" d="M200.291,140.844c-0.657,0-1.269-0.109-1.839-0.324c-0.57-0.217-1.063-0.518-1.477-0.907
			c-0.414-0.388-0.738-0.841-0.973-1.36c-0.232-0.518-0.35-1.087-0.35-1.709c0-0.64,0.143-1.23,0.428-1.773
			c0.285-0.545,0.683-1.007,1.191-1.387c0.51-0.379,1.117-0.678,1.825-0.895c0.709-0.214,1.485-0.322,2.332-0.322
			c0.604,0,1.196,0.051,1.775,0.154c0.577,0.104,1.092,0.251,1.541,0.441v-0.777c0-0.898-0.256-1.588-0.764-2.072
			c-0.511-0.483-1.265-0.726-2.268-0.726c-0.725,0-1.433,0.13-2.125,0.389c-0.689,0.26-1.398,0.64-2.122,1.141l-1.063-2.203
			c1.743-1.157,3.626-1.734,5.647-1.734c1.95,0,3.466,0.479,4.544,1.438c1.081,0.957,1.619,2.342,1.619,4.156v4.222
			c0,0.362,0.066,0.622,0.195,0.777s0.341,0.242,0.635,0.259v2.953c-0.589,0.121-1.097,0.182-1.529,0.182
			c-0.655,0-1.161-0.148-1.516-0.441c-0.354-0.293-0.572-0.682-0.66-1.164l-0.078-0.752c-0.604,0.795-1.338,1.398-2.2,1.813
			C202.198,140.637,201.275,140.844,200.291,140.844z M201.275,138.305c0.587,0,1.144-0.104,1.67-0.311s0.936-0.482,1.23-0.829
			c0.379-0.294,0.57-0.622,0.57-0.985v-1.553c-0.414-0.156-0.865-0.281-1.348-0.377c-0.483-0.095-0.95-0.143-1.398-0.143
			c-0.899,0-1.633,0.203-2.201,0.609c-0.57,0.406-0.855,0.92-0.855,1.541c0,0.588,0.224,1.075,0.674,1.463
			C200.066,138.109,200.618,138.305,201.275,138.305z M202.959,125.432l-2.229-0.674l1.398-3.083h3.237L202.959,125.432z"/>
		<path fill="#FFFFFF" d="M219.69,140.844c-1.138,0-2.253-0.182-3.341-0.545c-1.088-0.361-2.021-0.881-2.797-1.554l1.295-2.177
			c0.828,0.588,1.635,1.033,2.422,1.335c0.786,0.302,1.565,0.452,2.343,0.452c0.692,0,1.235-0.129,1.633-0.389
			c0.398-0.258,0.596-0.629,0.596-1.113c0-0.482-0.232-0.838-0.699-1.061c-0.467-0.225-1.226-0.484-2.278-0.777
			c-0.881-0.242-1.633-0.476-2.254-0.701c-0.623-0.223-1.125-0.478-1.504-0.764c-0.38-0.285-0.655-0.612-0.828-0.984
			c-0.172-0.37-0.26-0.816-0.26-1.334c0-0.689,0.134-1.313,0.402-1.864c0.267-0.552,0.645-1.022,1.127-1.411
			c0.483-0.389,1.049-0.687,1.697-0.895c0.646-0.207,1.35-0.311,2.111-0.311c1.019,0,1.973,0.146,2.86,0.441
			c0.89,0.293,1.706,0.768,2.449,1.423l-1.398,2.1c-0.692-0.519-1.361-0.899-2.008-1.141c-0.648-0.241-1.292-0.363-1.932-0.363
			c-0.586,0-1.078,0.122-1.476,0.363c-0.396,0.241-0.596,0.63-0.596,1.166c0,0.241,0.048,0.44,0.143,0.596
			c0.094,0.155,0.246,0.294,0.453,0.413c0.206,0.123,0.48,0.238,0.815,0.35c0.339,0.113,0.757,0.23,1.259,0.35
			c0.931,0.243,1.729,0.486,2.394,0.727c0.664,0.242,1.21,0.518,1.633,0.828s0.733,0.67,0.934,1.076
			c0.197,0.404,0.297,0.893,0.297,1.463c0,1.33-0.492,2.379-1.477,3.148C222.722,140.459,221.384,140.844,219.69,140.844z"/>
		<path fill="#FFFFFF" d="M248.001,140.844c-1.069,0-2.003-0.238-2.796-0.713c-0.796-0.475-1.417-1.118-1.865-1.93v7.9h-3.473
			v-19.09h3.031v2.332c0.501-0.797,1.149-1.422,1.943-1.879c0.793-0.459,1.708-0.687,2.745-0.687c0.916,0,1.762,0.185,2.539,0.558
			c0.777,0.369,1.446,0.871,2.008,1.502c0.561,0.629,1,1.372,1.319,2.228c0.32,0.854,0.481,1.757,0.481,2.706
			c0,0.984-0.147,1.909-0.442,2.771c-0.294,0.865-0.703,1.614-1.229,2.254c-0.527,0.639-1.152,1.141-1.877,1.502
			C249.659,140.662,248.866,140.844,248.001,140.844z M246.835,137.891c0.52,0,0.998-0.112,1.439-0.338
			c0.439-0.223,0.814-0.525,1.127-0.906c0.311-0.379,0.552-0.82,0.725-1.32c0.173-0.501,0.26-1.018,0.26-1.555
			c0-0.57-0.097-1.102-0.285-1.593c-0.19-0.493-0.453-0.921-0.791-1.282c-0.336-0.362-0.733-0.647-1.191-0.854
			c-0.457-0.207-0.954-0.31-1.49-0.31c-0.326,0-0.664,0.055-1.009,0.167c-0.346,0.112-0.665,0.271-0.959,0.478
			c-0.295,0.207-0.557,0.451-0.789,0.728c-0.234,0.276-0.412,0.577-0.531,0.905v3.186c0.311,0.777,0.784,1.422,1.424,1.931
			C245.402,137.635,246.093,137.891,246.835,137.891z"/>
		<path fill="#FFFFFF" d="M263.103,140.844c-0.657,0-1.27-0.109-1.84-0.324c-0.57-0.217-1.063-0.518-1.477-0.907
			c-0.413-0.388-0.737-0.841-0.973-1.36c-0.231-0.518-0.35-1.087-0.35-1.709c0-0.64,0.143-1.23,0.428-1.773
			c0.285-0.545,0.684-1.007,1.191-1.387c0.511-0.379,1.118-0.678,1.826-0.895c0.708-0.214,1.485-0.322,2.332-0.322
			c0.604,0,1.195,0.051,1.775,0.154c0.577,0.104,1.092,0.251,1.54,0.441v-0.777c0-0.898-0.255-1.588-0.763-2.072
			c-0.511-0.483-1.266-0.726-2.268-0.726c-0.725,0-1.433,0.13-2.125,0.389c-0.69,0.26-1.398,0.64-2.123,1.141l-1.063-2.203
			c1.743-1.157,3.627-1.734,5.648-1.734c1.95,0,3.466,0.479,4.544,1.438c1.081,0.957,1.619,2.342,1.619,4.156v4.222
			c0,0.362,0.066,0.622,0.195,0.777s0.34,0.242,0.635,0.259v2.953c-0.589,0.121-1.097,0.182-1.529,0.182
			c-0.655,0-1.161-0.148-1.516-0.441s-0.572-0.682-0.66-1.164l-0.078-0.752c-0.604,0.795-1.338,1.398-2.2,1.813
			C265.009,140.637,264.087,140.844,263.103,140.844z M264.087,138.305c0.586,0,1.143-0.104,1.67-0.311
			c0.526-0.207,0.936-0.482,1.229-0.829c0.38-0.294,0.57-0.622,0.57-0.985v-1.553c-0.414-0.156-0.864-0.281-1.348-0.377
			c-0.482-0.095-0.949-0.143-1.397-0.143c-0.899,0-1.633,0.203-2.201,0.609c-0.57,0.406-0.855,0.92-0.855,1.541
			c0,0.588,0.224,1.075,0.674,1.463C262.877,138.109,263.429,138.305,264.087,138.305z"/>
		<path fill="#FFFFFF" d="M285.457,130.016c-1.054,0.018-1.996,0.219-2.824,0.607c-0.83,0.389-1.426,0.974-1.786,1.75v8.211h-3.473
			v-13.572h3.188v2.9c0.241-0.466,0.526-0.884,0.855-1.257c0.326-0.37,0.681-0.694,1.06-0.97c0.38-0.277,0.766-0.488,1.154-0.635
			c0.389-0.147,0.764-0.221,1.127-0.221c0.188,0,0.331,0,0.426,0c0.097,0,0.187,0.008,0.273,0.025V130.016z"/>
		<path fill="#FFFFFF" d="M294.03,140.844c-0.658,0-1.27-0.109-1.84-0.324c-0.57-0.217-1.063-0.518-1.477-0.907
			c-0.414-0.388-0.738-0.841-0.973-1.36c-0.232-0.518-0.35-1.087-0.35-1.709c0-0.64,0.143-1.23,0.428-1.773
			c0.285-0.545,0.683-1.007,1.191-1.387c0.511-0.379,1.117-0.678,1.826-0.895c0.708-0.214,1.485-0.322,2.331-0.322
			c0.605,0,1.196,0.051,1.775,0.154c0.577,0.104,1.093,0.251,1.541,0.441v-0.777c0-0.898-0.255-1.588-0.764-2.072
			c-0.511-0.483-1.265-0.726-2.268-0.726c-0.724,0-1.433,0.13-2.125,0.389c-0.689,0.26-1.397,0.64-2.122,1.141l-1.063-2.203
			c1.743-1.157,3.627-1.734,5.647-1.734c1.95,0,3.466,0.479,4.544,1.438c1.081,0.957,1.619,2.342,1.619,4.156v4.222
			c0,0.362,0.067,0.622,0.195,0.777c0.129,0.155,0.341,0.242,0.635,0.259v2.953c-0.588,0.121-1.097,0.182-1.529,0.182
			c-0.655,0-1.161-0.148-1.515-0.441c-0.354-0.293-0.573-0.682-0.66-1.164l-0.078-0.752c-0.605,0.795-1.339,1.398-2.201,1.813
			C295.937,140.637,295.015,140.844,294.03,140.844z M295.015,138.305c0.586,0,1.143-0.104,1.669-0.311s0.936-0.482,1.23-0.829
			c0.379-0.294,0.57-0.622,0.57-0.985v-1.553c-0.414-0.156-0.865-0.281-1.348-0.377c-0.483-0.095-0.95-0.143-1.398-0.143
			c-0.898,0-1.633,0.203-2.2,0.609c-0.57,0.406-0.855,0.92-0.855,1.541c0,0.588,0.223,1.075,0.674,1.463
			C293.805,138.109,294.356,138.305,295.015,138.305z"/>
	</g>
</g>
<g>
	<path fill="#FFFFFF" d="M37.85,226.141c-2.321,0-4.672-0.141-7.048-0.417s-4.615-0.69-6.715-1.241
		c-2.102-0.553-3.98-1.203-5.639-1.951c-1.658-0.744-2.931-1.586-3.815-2.527c1.327-1.547,1.992-4.2,1.992-7.961v-31.341
		c0-1.935-0.403-3.315-1.203-4.146c-0.802-0.83-2.447-1.382-4.934-1.658c0-1.049,0.07-2.127,0.207-3.234
		c0.139-1.105,0.428-2.102,0.87-2.984c2.044,0,4.008-0.082,5.887-0.25c1.879-0.166,3.593-0.373,5.142-0.621
		c1.546-0.248,2.914-0.538,4.104-0.871c1.188-0.332,2.114-0.663,2.778-0.994c0.939,0.441,1.658,1.076,2.156,1.906
		c0.497,0.83,0.746,1.964,0.746,3.398v14.346c0,0.939-0.015,1.77-0.042,2.488c-0.027,0.719-0.069,1.367-0.124,1.947
		c-0.055,0.582-0.138,1.147-0.249,1.699c-0.055,0.334-0.138,0.692-0.248,1.079c0.939-1.214,1.879-2.183,2.819-2.902
		c1.048-0.772,2.5-1.506,4.353-2.196c1.851-0.691,3.938-1.037,6.259-1.037c2.375,0,4.602,0.317,6.676,0.955
		c2.072,0.635,3.868,1.629,5.388,2.984c1.52,1.354,2.723,3.096,3.608,5.223c0.883,2.129,1.327,4.656,1.327,7.586
		c0,3.429-0.582,6.538-1.742,9.33c-1.16,2.791-2.792,5.18-4.893,7.172c-2.102,1.988-4.656,3.523-7.669,4.602
		C44.828,225.6,41.498,226.141,37.85,226.141z M32.377,217.434c0.607,0.775,1.243,1.41,1.908,1.907
		c0.938,0.608,2.044,0.912,3.316,0.912c0.939,0,1.92-0.18,2.944-0.54c1.022-0.359,1.961-1.063,2.819-2.113
		c0.855-1.049,1.562-2.516,2.114-4.395c0.552-1.879,0.83-4.34,0.83-7.38c0-1.327-0.098-2.64-0.29-3.938
		c-0.195-1.297-0.526-2.473-0.996-3.524c-0.47-1.05-1.12-1.905-1.948-2.569c-0.83-0.663-1.909-0.996-3.234-0.996
		c-0.94,0-1.852,0.223-2.736,0.664c-0.884,0.443-1.673,1.162-2.363,2.154c-0.692,0.997-1.258,2.295-1.7,3.898
		c-0.444,1.604-0.664,3.564-0.664,5.887V217.434z"/>
	<path fill="#FFFFFF" d="M115.873,209.641c0,1.438,0.083,2.609,0.249,3.523c0.166,0.912,0.415,1.615,0.747,2.113
		c0.332,0.498,0.731,0.83,1.202,0.995c0.469,0.165,1.036,0.249,1.701,0.249c0,1.271-0.056,2.474-0.167,3.607
		c-0.111,1.133-0.387,2.252-0.829,3.357c-2.985,0.166-5.722,0.469-8.208,0.913c-2.487,0.441-4.589,1.021-6.302,1.741
		c-1.106-0.389-1.948-0.9-2.528-1.535s-0.871-1.506-0.871-2.611c0-0.665,0.083-1.355,0.249-2.072c0.11-0.552,0.221-1.105,0.331-1.66
		c-0.331,0.885-0.829,1.715-1.492,2.488c-0.775,0.996-1.41,1.713-1.906,2.156c-1.273,0.941-2.709,1.686-4.312,2.238
		c-1.604,0.551-3.429,0.83-5.473,0.83c-8.844,0-13.266-3.319-13.266-9.95c0-2.819,0.913-5.112,2.736-6.884
		c1.824-1.768,4.048-3.178,6.675-4.229c2.625-1.049,5.375-1.823,8.25-2.32c2.875-0.498,5.362-0.885,7.462-1.161
		c0-1.878-0.138-3.371-0.414-4.478c-0.277-1.105-0.775-2.044-1.492-2.818c-0.497-0.607-1.134-1.049-1.907-1.327
		c-0.775-0.276-1.549-0.415-2.322-0.415c-1.879,0-3.275,0.816-4.188,2.445c-0.912,1.633-1.506,3.828-1.782,6.593
		c-1.937,0-3.594-0.056-4.974-0.165c-1.383-0.111-2.737-0.414-4.063-0.914c0.11-1.602,0.152-3.26,0.124-4.973
		c-0.029-1.714-0.263-3.621-0.705-5.723c2.321-0.882,4.988-1.602,8.001-2.156c3.012-0.553,6.287-0.828,9.825-0.828
		c4.422,0,7.836,0.332,10.24,0.996c2.404,0.662,4.271,1.713,5.597,3.15c0.498,0.552,0.981,1.189,1.451,1.906
		c0.468,0.72,0.884,1.589,1.243,2.612c0.358,1.022,0.634,2.251,0.83,3.688c0.193,1.439,0.29,3.15,0.29,5.143V209.641z
		 M100.118,206.738c-3.647,0.717-6.19,1.617-7.628,2.693c-1.437,1.078-2.156,2.418-2.156,4.021c0,1.326,0.304,2.24,0.912,2.736
		c0.608,0.496,1.354,0.745,2.24,0.745c0.773,0,1.547-0.19,2.32-0.579c0.775-0.387,1.479-0.955,2.116-1.7
		c0.635-0.747,1.16-1.657,1.575-2.735c0.414-1.079,0.621-2.334,0.621-3.771V206.738z"/>
	<path fill="#FFFFFF" d="M153.848,211.961c0,1.382,0.083,2.529,0.249,3.439c0.166,0.914,0.455,1.633,0.87,2.158
		s0.967,0.912,1.658,1.16s1.588,0.401,2.695,0.456c0.275,0.774,0.456,1.698,0.539,2.778c0.082,1.077,0.124,2.309,0.124,3.688
		c-0.497-0.055-1.244-0.096-2.24-0.123c-0.993-0.028-2.127-0.056-3.399-0.084c-1.271-0.027-2.626-0.041-4.063-0.041h-8.623
		c-1.438,0-2.793,0.014-4.063,0.041c-1.273,0.028-2.404,0.056-3.4,0.084c-0.995,0.027-1.741,0.068-2.237,0.123
		c0-1.379,0.054-2.61,0.166-3.688c0.11-1.08,0.303-2.004,0.58-2.778c1.106-0.055,2.003-0.208,2.695-0.456
		c0.691-0.248,1.244-0.635,1.658-1.16c0.415-0.525,0.691-1.244,0.83-2.158c0.137-0.91,0.207-2.058,0.207-3.439v-10.53
		c0-1.935-0.402-3.316-1.203-4.146c-0.802-0.828-2.446-1.381-4.933-1.658c0-1.049,0.069-2.127,0.207-3.234
		c0.138-1.105,0.428-2.1,0.87-2.984c2.044,0,4.007-0.082,5.887-0.248c1.878-0.168,3.593-0.375,5.141-0.623
		c1.547-0.248,2.916-0.539,4.105-0.869c1.188-0.334,2.113-0.664,2.778-0.996c0.938,0.443,1.658,1.078,2.155,1.906
		c0.498,0.83,0.747,1.965,0.747,3.398V211.961z M135.44,176.059c0-2.488,0.842-4.338,2.529-5.555
		c1.686-1.217,3.855-1.824,6.508-1.824c5.97,0,8.956,2.403,8.956,7.215c0,2.043-0.843,3.701-2.528,4.973
		c-1.688,1.271-4.022,1.907-7.007,1.907c-2.654,0-4.726-0.607-6.218-1.823C136.188,179.736,135.44,178.104,135.44,176.059z"/>
	<path fill="#FFFFFF" d="M178.141,179.872c-0.111-1.603-0.579-2.763-1.409-3.481c-0.829-0.718-2.404-1.216-4.727-1.492
		c0-1.049,0.069-2.127,0.207-3.234c0.139-1.105,0.428-2.102,0.871-2.984c2.045,0,4.007-0.082,5.887-0.25
		c1.879-0.166,3.593-0.373,5.141-0.621s2.916-0.538,4.104-0.871c1.188-0.332,2.113-0.663,2.778-0.994
		c0.938,0.441,1.658,1.076,2.154,1.906c0.498,0.83,0.748,1.964,0.748,3.398v40.713c0,1.382,0.082,2.529,0.248,3.439
		c0.166,0.914,0.455,1.633,0.87,2.158s0.968,0.912,1.659,1.16c0.69,0.248,1.588,0.401,2.694,0.456
		c0.276,0.774,0.456,1.698,0.539,2.778c0.083,1.077,0.124,2.309,0.124,3.688c-0.496-0.055-1.244-0.096-2.238-0.123
		c-0.995-0.028-2.128-0.056-3.4-0.084c-1.271-0.027-2.626-0.041-4.063-0.041h-8.622c-1.438,0-2.792,0.014-4.063,0.041
		c-1.272,0.028-2.405,0.056-3.399,0.084c-0.995,0.027-1.742,0.068-2.239,0.123c0-1.379,0.055-2.61,0.166-3.688
		c0.11-1.08,0.304-2.004,0.581-2.778c1.104-0.055,2.003-0.208,2.693-0.456c0.691-0.248,1.244-0.635,1.658-1.16
		c0.416-0.525,0.692-1.244,0.83-2.158c0.138-0.91,0.207-2.058,0.207-3.439V179.872z"/>
	<path fill="#FFFFFF" d="M253.345,209.641c0,1.438,0.082,2.609,0.248,3.523c0.168,0.912,0.416,1.615,0.747,2.113
		s0.731,0.83,1.203,0.995c0.469,0.165,1.035,0.249,1.699,0.249c0,1.271-0.055,2.474-0.165,3.607
		c-0.113,1.133-0.389,2.252-0.831,3.357c-2.984,0.166-5.721,0.469-8.207,0.913c-2.488,0.441-4.59,1.021-6.303,1.741
		c-1.106-0.389-1.948-0.9-2.527-1.535c-0.582-0.635-0.872-1.506-0.872-2.611c0-0.665,0.083-1.355,0.249-2.072
		c0.11-0.552,0.221-1.105,0.331-1.66c-0.331,0.885-0.828,1.715-1.492,2.488c-0.773,0.996-1.41,1.713-1.907,2.156
		c-1.271,0.941-2.709,1.686-4.312,2.238c-1.603,0.551-3.429,0.83-5.472,0.83c-8.846,0-13.267-3.319-13.267-9.95
		c0-2.819,0.912-5.112,2.735-6.884c1.825-1.768,4.05-3.178,6.676-4.229c2.624-1.049,5.374-1.823,8.249-2.32
		c2.874-0.498,5.362-0.885,7.464-1.161c0-1.878-0.14-3.371-0.416-4.478c-0.275-1.105-0.774-2.044-1.492-2.818
		c-0.497-0.607-1.134-1.049-1.906-1.327c-0.775-0.276-1.548-0.415-2.323-0.415c-1.878,0-3.274,0.816-4.188,2.445
		c-0.91,1.633-1.506,3.828-1.782,6.593c-1.935,0-3.593-0.056-4.974-0.165c-1.382-0.111-2.736-0.414-4.063-0.914
		c0.11-1.602,0.152-3.26,0.124-4.973c-0.027-1.714-0.262-3.621-0.703-5.723c2.32-0.882,4.987-1.602,8-2.156
		c3.013-0.553,6.287-0.828,9.826-0.828c4.422,0,7.835,0.332,10.24,0.996c2.403,0.662,4.271,1.713,5.597,3.15
		c0.497,0.552,0.98,1.189,1.451,1.906c0.47,0.72,0.884,1.589,1.242,2.612c0.361,1.022,0.637,2.251,0.83,3.688
		c0.193,1.439,0.29,3.15,0.29,5.143V209.641z M237.592,206.738c-3.649,0.717-6.192,1.617-7.63,2.693
		c-1.438,1.078-2.154,2.418-2.154,4.021c0,1.326,0.304,2.24,0.91,2.736c0.609,0.496,1.354,0.745,2.24,0.745
		c0.772,0,1.548-0.19,2.322-0.579c0.772-0.387,1.477-0.955,2.113-1.7c0.635-0.747,1.161-1.657,1.575-2.735
		c0.414-1.079,0.623-2.334,0.623-3.771V206.738z"/>
	<path fill="#FFFFFF" d="M291.32,209.059c0,1.771,0.136,3.275,0.414,4.519c0.275,1.244,0.772,2.253,1.492,3.026
		c0.718,0.775,1.644,1.368,2.777,1.782c1.132,0.417,2.583,0.679,4.354,0.789c0.331,0.939,0.538,1.989,0.621,3.149
		c0.083,1.162,0.124,2.268,0.124,3.316c-0.775-0.055-1.741-0.096-2.902-0.123c-1.159-0.028-2.417-0.056-3.771-0.084
		c-1.354-0.027-2.75-0.041-4.188-0.041h-8.706c-1.548,0-3.067,0.014-4.56,0.041c-1.493,0.028-2.889,0.056-4.188,0.084
		c-1.299,0.027-2.419,0.068-3.357,0.123c0-1.492,0.042-2.748,0.125-3.771c0.082-1.024,0.234-1.921,0.455-2.695
		c1.106-0.055,2.017-0.222,2.736-0.497c0.718-0.275,1.285-0.748,1.699-1.41c0.414-0.664,0.706-1.574,0.872-2.736
		c0.165-1.16,0.248-2.709,0.248-4.643v-6.883c0-1.326-0.055-2.447-0.166-3.356c-0.112-0.913-0.36-1.646-0.747-2.199
		c-0.386-0.552-0.981-0.966-1.782-1.244c-0.803-0.276-1.865-0.469-3.191-0.579c0-1.049,0.068-2.127,0.207-3.234
		c0.138-1.105,0.428-2.1,0.871-2.984c4.146,0,7.808-0.289,10.985-0.871c3.178-0.579,5.432-1.203,6.759-1.865
		c0.938,0.443,1.644,1.078,2.113,1.906c0.469,0.83,0.706,1.965,0.706,3.398c0,0.943-0.141,2.048-0.417,3.318
		c-0.221,1.051-0.523,2.403-0.91,4.064l0.083-0.168c0.221-0.719,0.455-1.41,0.703-2.072c0.249-0.662,0.499-1.299,0.748-1.906
		c0.248-0.609,0.482-1.078,0.703-1.409c1.217-1.935,2.751-3.538,4.602-4.812c1.854-1.27,3.912-1.906,6.179-1.906
		c2.21,0,4.255,0.664,6.136,1.992c-0.166,0.939-0.319,2.016-0.455,3.232c-0.141,1.217-0.251,2.461-0.334,3.73
		c-0.082,1.271-0.138,2.529-0.165,3.773s0.014,2.361,0.124,3.357c-0.552,0.277-1.217,0.484-1.989,0.623
		c-0.775,0.138-1.563,0.248-2.364,0.331c-0.8,0.083-1.603,0.138-2.402,0.165c-0.803,0.027-1.481,0.042-2.033,0.042
		c-0.056-3.536-1.134-5.308-3.233-5.308c-0.552,0-1.12,0.264-1.699,0.789c-0.58,0.526-1.12,1.203-1.617,2.03
		c-0.498,0.83-0.898,1.782-1.202,2.86s-0.455,2.198-0.455,3.357V209.059z"/>
</g>
</svg>
